ISO-10303-21;
HEADER;
/* Generated by software containing ST-Developer
 * from STEP Tools, Inc. (www.steptools.com) 
 */

FILE_DESCRIPTION(
/* description */ ('Designed by EasyEDA Pro',
'CAx-IF Rec.Pracs.---Representation and Presentation of Product Manufa
cturing Information (PMI)---4.0---2014-10-13'),
/* implementation_level */ '2;1');

FILE_NAME(
/* name */ 'ArduinoArcadeCardReader_ESP32C3MINI.step',
/* time_stamp */ '2025-04-27T16:28:13+08:00',
/* author */ (''),
/* organization */ (''),
/* preprocessor_version */ 'ST-DEVELOPER v20',
/* originating_system */ 'Autodesk Translation Framework v13.20.0.188',

/* authorisation */ '');

FILE_SCHEMA (('AP242_MANAGED_MODEL_BASED_3D_ENGINEERING_MIM_LF { 1 0 10303 442 1 1 4 }'));
ENDSEC;

DATA;
#10=MECHANICAL_DESIGN_GEOMETRIC_PRESENTATION_REPRESENTATION('',(#69),#1778);
#11=SHAPE_REPRESENTATION_RELATIONSHIP('SRR','None',#1807,#12);
#12=ADVANCED_BREP_SHAPE_REPRESENTATION('',(#70),#1773);
#13=ITEM_DEFINED_TRANSFORMATION($,$,#1052,#1144);
#14=ITEM_DEFINED_TRANSFORMATION($,$,#1053,#1145);
#15=ITEM_DEFINED_TRANSFORMATION($,$,#1054,#1146);
#16=ITEM_DEFINED_TRANSFORMATION($,$,#1055,#1147);
#17=ITEM_DEFINED_TRANSFORMATION($,$,#1055,#1148);
#18=ITEM_DEFINED_TRANSFORMATION($,$,#1055,#1149);
#19=ITEM_DEFINED_TRANSFORMATION($,$,#1055,#1150);
#20=ITEM_DEFINED_TRANSFORMATION($,$,#1055,#1151);
#21=ITEM_DEFINED_TRANSFORMATION($,$,#1055,#1152);
#22=ITEM_DEFINED_TRANSFORMATION($,$,#1055,#1153);
#23=ITEM_DEFINED_TRANSFORMATION($,$,#1055,#1154);
#24=ITEM_DEFINED_TRANSFORMATION($,$,#1055,#1155);
#25=ITEM_DEFINED_TRANSFORMATION($,$,#1055,#1156);
#26=ITEM_DEFINED_TRANSFORMATION($,$,#1055,#1157);
#27=(
REPRESENTATION_RELATIONSHIP($,$,#1808,#1807)
REPRESENTATION_RELATIONSHIP_WITH_TRANSFORMATION(#13)
SHAPE_REPRESENTATION_RELATIONSHIP()
);
#28=(
REPRESENTATION_RELATIONSHIP($,$,#1809,#1807)
REPRESENTATION_RELATIONSHIP_WITH_TRANSFORMATION(#14)
SHAPE_REPRESENTATION_RELATIONSHIP()
);
#29=(
REPRESENTATION_RELATIONSHIP($,$,#1810,#1807)
REPRESENTATION_RELATIONSHIP_WITH_TRANSFORMATION(#15)
SHAPE_REPRESENTATION_RELATIONSHIP()
);
#30=(
REPRESENTATION_RELATIONSHIP($,$,#1811,#1807)
REPRESENTATION_RELATIONSHIP_WITH_TRANSFORMATION(#16)
SHAPE_REPRESENTATION_RELATIONSHIP()
);
#31=(
REPRESENTATION_RELATIONSHIP($,$,#1811,#1807)
REPRESENTATION_RELATIONSHIP_WITH_TRANSFORMATION(#17)
SHAPE_REPRESENTATION_RELATIONSHIP()
);
#32=(
REPRESENTATION_RELATIONSHIP($,$,#1811,#1807)
REPRESENTATION_RELATIONSHIP_WITH_TRANSFORMATION(#18)
SHAPE_REPRESENTATION_RELATIONSHIP()
);
#33=(
REPRESENTATION_RELATIONSHIP($,$,#1811,#1807)
REPRESENTATION_RELATIONSHIP_WITH_TRANSFORMATION(#19)
SHAPE_REPRESENTATION_RELATIONSHIP()
);
#34=(
REPRESENTATION_RELATIONSHIP($,$,#1811,#1807)
REPRESENTATION_RELATIONSHIP_WITH_TRANSFORMATION(#20)
SHAPE_REPRESENTATION_RELATIONSHIP()
);
#35=(
REPRESENTATION_RELATIONSHIP($,$,#1811,#1807)
REPRESENTATION_RELATIONSHIP_WITH_TRANSFORMATION(#21)
SHAPE_REPRESENTATION_RELATIONSHIP()
);
#36=(
REPRESENTATION_RELATIONSHIP($,$,#1811,#1807)
REPRESENTATION_RELATIONSHIP_WITH_TRANSFORMATION(#22)
SHAPE_REPRESENTATION_RELATIONSHIP()
);
#37=(
REPRESENTATION_RELATIONSHIP($,$,#1811,#1807)
REPRESENTATION_RELATIONSHIP_WITH_TRANSFORMATION(#23)
SHAPE_REPRESENTATION_RELATIONSHIP()
);
#38=(
REPRESENTATION_RELATIONSHIP($,$,#1811,#1807)
REPRESENTATION_RELATIONSHIP_WITH_TRANSFORMATION(#24)
SHAPE_REPRESENTATION_RELATIONSHIP()
);
#39=(
REPRESENTATION_RELATIONSHIP($,$,#1811,#1807)
REPRESENTATION_RELATIONSHIP_WITH_TRANSFORMATION(#25)
SHAPE_REPRESENTATION_RELATIONSHIP()
);
#40=(
REPRESENTATION_RELATIONSHIP($,$,#1811,#1807)
REPRESENTATION_RELATIONSHIP_WITH_TRANSFORMATION(#26)
SHAPE_REPRESENTATION_RELATIONSHIP()
);
#41=CONTEXT_DEPENDENT_SHAPE_REPRESENTATION(#27,#1793);
#42=CONTEXT_DEPENDENT_SHAPE_REPRESENTATION(#28,#1794);
#43=CONTEXT_DEPENDENT_SHAPE_REPRESENTATION(#29,#1795);
#44=CONTEXT_DEPENDENT_SHAPE_REPRESENTATION(#30,#1796);
#45=CONTEXT_DEPENDENT_SHAPE_REPRESENTATION(#31,#1797);
#46=CONTEXT_DEPENDENT_SHAPE_REPRESENTATION(#32,#1798);
#47=CONTEXT_DEPENDENT_SHAPE_REPRESENTATION(#33,#1799);
#48=CONTEXT_DEPENDENT_SHAPE_REPRESENTATION(#34,#1800);
#49=CONTEXT_DEPENDENT_SHAPE_REPRESENTATION(#35,#1801);
#50=CONTEXT_DEPENDENT_SHAPE_REPRESENTATION(#36,#1802);
#51=CONTEXT_DEPENDENT_SHAPE_REPRESENTATION(#37,#1803);
#52=CONTEXT_DEPENDENT_SHAPE_REPRESENTATION(#38,#1804);
#53=CONTEXT_DEPENDENT_SHAPE_REPRESENTATION(#39,#1805);
#54=CONTEXT_DEPENDENT_SHAPE_REPRESENTATION(#40,#1806);
#55=NEXT_ASSEMBLY_USAGE_OCCURRENCE('3bX4-TopTrack:1','3bX4-TopTrack:1',
'3bX4-TopTrack:1',#1813,#1814,'3bX4-TopTrack:1');
#56=NEXT_ASSEMBLY_USAGE_OCCURRENCE('3bX4-TopSilk:1','3bX4-TopSilk:1',
'3bX4-TopSilk:1',#1813,#1815,'3bX4-TopSilk:1');
#57=NEXT_ASSEMBLY_USAGE_OCCURRENCE('3bX4-Board:1','3bX4-Board:1',
'3bX4-Board:1',#1813,#1816,'3bX4-Board:1');
#58=NEXT_ASSEMBLY_USAGE_OCCURRENCE('3bX4-LED11-LED-SMD_WS2812B-4020:1',
'3bX4-LED11-LED-SMD_WS2812B-4020:1','3bX4-LED11-LED-SMD_WS2812B-4020:1',
#1813,#1817,'3bX4-LED11-LED-SMD_WS2812B-4020:1');
#59=NEXT_ASSEMBLY_USAGE_OCCURRENCE('3bX4-LED11-LED-SMD_WS2812B-4020:2',
'3bX4-LED11-LED-SMD_WS2812B-4020:2','3bX4-LED11-LED-SMD_WS2812B-4020:2',
#1813,#1817,'3bX4-LED11-LED-SMD_WS2812B-4020:2');
#60=NEXT_ASSEMBLY_USAGE_OCCURRENCE('3bX4-LED11-LED-SMD_WS2812B-4020:3',
'3bX4-LED11-LED-SMD_WS2812B-4020:3','3bX4-LED11-LED-SMD_WS2812B-4020:3',
#1813,#1817,'3bX4-LED11-LED-SMD_WS2812B-4020:3');
#61=NEXT_ASSEMBLY_USAGE_OCCURRENCE('3bX4-LED11-LED-SMD_WS2812B-4020:4',
'3bX4-LED11-LED-SMD_WS2812B-4020:4','3bX4-LED11-LED-SMD_WS2812B-4020:4',
#1813,#1817,'3bX4-LED11-LED-SMD_WS2812B-4020:4');
#62=NEXT_ASSEMBLY_USAGE_OCCURRENCE('3bX4-LED11-LED-SMD_WS2812B-4020:5',
'3bX4-LED11-LED-SMD_WS2812B-4020:5','3bX4-LED11-LED-SMD_WS2812B-4020:5',
#1813,#1817,'3bX4-LED11-LED-SMD_WS2812B-4020:5');
#63=NEXT_ASSEMBLY_USAGE_OCCURRENCE('3bX4-LED11-LED-SMD_WS2812B-4020:6',
'3bX4-LED11-LED-SMD_WS2812B-4020:6','3bX4-LED11-LED-SMD_WS2812B-4020:6',
#1813,#1817,'3bX4-LED11-LED-SMD_WS2812B-4020:6');
#64=NEXT_ASSEMBLY_USAGE_OCCURRENCE('3bX4-LED11-LED-SMD_WS2812B-4020:7',
'3bX4-LED11-LED-SMD_WS2812B-4020:7','3bX4-LED11-LED-SMD_WS2812B-4020:7',
#1813,#1817,'3bX4-LED11-LED-SMD_WS2812B-4020:7');
#65=NEXT_ASSEMBLY_USAGE_OCCURRENCE('3bX4-LED11-LED-SMD_WS2812B-4020:8',
'3bX4-LED11-LED-SMD_WS2812B-4020:8','3bX4-LED11-LED-SMD_WS2812B-4020:8',
#1813,#1817,'3bX4-LED11-LED-SMD_WS2812B-4020:8');
#66=NEXT_ASSEMBLY_USAGE_OCCURRENCE('3bX4-LED11-LED-SMD_WS2812B-4020:9',
'3bX4-LED11-LED-SMD_WS2812B-4020:9','3bX4-LED11-LED-SMD_WS2812B-4020:9',
#1813,#1817,'3bX4-LED11-LED-SMD_WS2812B-4020:9');
#67=NEXT_ASSEMBLY_USAGE_OCCURRENCE('3bX4-LED11-LED-SMD_WS2812B-4020:10',
'3bX4-LED11-LED-SMD_WS2812B-4020:10',
'3bX4-LED11-LED-SMD_WS2812B-4020:10',#1813,#1817,
'3bX4-LED11-LED-SMD_WS2812B-4020:10');
#68=NEXT_ASSEMBLY_USAGE_OCCURRENCE('3bX4-LED11-LED-SMD_WS2812B-4020:11',
'3bX4-LED11-LED-SMD_WS2812B-4020:11',
'3bX4-LED11-LED-SMD_WS2812B-4020:11',#1813,#1817,
'3bX4-LED11-LED-SMD_WS2812B-4020:11');
#69=STYLED_ITEM('',(#1836),#70);
#70=MANIFOLD_SOLID_BREP('\X2\5B9E4F53\X0\1',#1005);
#71=CYLINDRICAL_SURFACE('',#1082,1.05);
#72=CYLINDRICAL_SURFACE('',#1100,2.00000000000003);
#73=CYLINDRICAL_SURFACE('',#1101,1.05);
#74=CYLINDRICAL_SURFACE('',#1104,2.00000000000001);
#75=CYLINDRICAL_SURFACE('',#1105,1.05);
#76=CYLINDRICAL_SURFACE('',#1108,2.00000000000001);
#77=CYLINDRICAL_SURFACE('',#1109,1.05);
#78=CYLINDRICAL_SURFACE('',#1112,2.);
#79=CYLINDRICAL_SURFACE('',#1126,2.);
#80=CYLINDRICAL_SURFACE('',#1128,2.00000000000001);
#81=CYLINDRICAL_SURFACE('',#1129,2.00000000000003);
#82=CYLINDRICAL_SURFACE('',#1130,2.00000000000001);
#83=CYLINDRICAL_SURFACE('',#1133,3.16734823472203);
#84=CYLINDRICAL_SURFACE('',#1136,3.167335534671);
#85=CYLINDRICAL_SURFACE('',#1139,3.16732283467);
#86=CYLINDRICAL_SURFACE('',#1141,3.16733553477305);
#87=CIRCLE('',#1061,3.16732283467);
#88=CIRCLE('',#1062,3.167335534671);
#89=CIRCLE('',#1063,3.16734823472203);
#90=CIRCLE('',#1064,3.16733553477305);
#91=CIRCLE('',#1065,2.00000000000003);
#92=CIRCLE('',#1066,1.05);
#93=CIRCLE('',#1067,2.00000000000003);
#94=CIRCLE('',#1068,2.00000000000001);
#95=CIRCLE('',#1069,1.05);
#96=CIRCLE('',#1070,2.00000000000001);
#97=CIRCLE('',#1071,2.);
#98=CIRCLE('',#1072,1.05);
#99=CIRCLE('',#1073,1.05);
#100=CIRCLE('',#1074,2.);
#101=CIRCLE('',#1075,2.00000000000001);
#102=CIRCLE('',#1076,1.05);
#103=CIRCLE('',#1077,1.05);
#104=CIRCLE('',#1078,2.00000000000001);
#105=CIRCLE('',#1083,1.05);
#106=CIRCLE('',#1084,1.05);
#107=CIRCLE('',#1085,1.05);
#108=CIRCLE('',#1088,2.00000000000003);
#109=CIRCLE('',#1089,2.00000000000001);
#110=CIRCLE('',#1090,1.05);
#111=CIRCLE('',#1091,2.00000000000001);
#112=CIRCLE('',#1092,2.);
#113=CIRCLE('',#1093,1.05);
#114=CIRCLE('',#1094,2.);
#115=CIRCLE('',#1095,2.00000000000001);
#116=CIRCLE('',#1096,1.05);
#117=CIRCLE('',#1097,1.05);
#118=CIRCLE('',#1098,2.00000000000001);
#119=CIRCLE('',#1099,2.00000000000003);
#120=CIRCLE('',#1102,1.05);
#121=CIRCLE('',#1106,1.05);
#122=CIRCLE('',#1110,1.05);
#123=CIRCLE('',#1134,3.16734823472203);
#124=CIRCLE('',#1137,3.167335534671);
#125=CIRCLE('',#1140,3.16732283467);
#126=CIRCLE('',#1142,3.16733553477305);
#127=FACE_OUTER_BOUND('',#175,.T.);
#128=FACE_OUTER_BOUND('',#176,.T.);
#129=FACE_OUTER_BOUND('',#177,.T.);
#130=FACE_OUTER_BOUND('',#178,.T.);
#131=FACE_OUTER_BOUND('',#179,.T.);
#132=FACE_OUTER_BOUND('',#180,.T.);
#133=FACE_OUTER_BOUND('',#181,.T.);
#134=FACE_OUTER_BOUND('',#182,.T.);
#135=FACE_OUTER_BOUND('',#183,.T.);
#136=FACE_OUTER_BOUND('',#184,.T.);
#137=FACE_OUTER_BOUND('',#185,.T.);
#138=FACE_OUTER_BOUND('',#186,.T.);
#139=FACE_OUTER_BOUND('',#187,.T.);
#140=FACE_OUTER_BOUND('',#188,.T.);
#141=FACE_OUTER_BOUND('',#189,.T.);
#142=FACE_OUTER_BOUND('',#190,.T.);
#143=FACE_OUTER_BOUND('',#191,.T.);
#144=FACE_OUTER_BOUND('',#192,.T.);
#145=FACE_OUTER_BOUND('',#193,.T.);
#146=FACE_OUTER_BOUND('',#194,.T.);
#147=FACE_OUTER_BOUND('',#195,.T.);
#148=FACE_OUTER_BOUND('',#196,.T.);
#149=FACE_OUTER_BOUND('',#197,.T.);
#150=FACE_OUTER_BOUND('',#198,.T.);
#151=FACE_OUTER_BOUND('',#199,.T.);
#152=FACE_OUTER_BOUND('',#200,.T.);
#153=FACE_OUTER_BOUND('',#201,.T.);
#154=FACE_OUTER_BOUND('',#202,.T.);
#155=FACE_OUTER_BOUND('',#203,.T.);
#156=FACE_OUTER_BOUND('',#204,.T.);
#157=FACE_OUTER_BOUND('',#205,.T.);
#158=FACE_OUTER_BOUND('',#206,.T.);
#159=FACE_OUTER_BOUND('',#207,.T.);
#160=FACE_OUTER_BOUND('',#208,.T.);
#161=FACE_OUTER_BOUND('',#209,.T.);
#162=FACE_OUTER_BOUND('',#210,.T.);
#163=FACE_OUTER_BOUND('',#211,.T.);
#164=FACE_OUTER_BOUND('',#212,.T.);
#165=FACE_OUTER_BOUND('',#213,.T.);
#166=FACE_OUTER_BOUND('',#214,.T.);
#167=FACE_OUTER_BOUND('',#215,.T.);
#168=FACE_OUTER_BOUND('',#216,.T.);
#169=FACE_OUTER_BOUND('',#217,.T.);
#170=FACE_OUTER_BOUND('',#218,.T.);
#171=FACE_OUTER_BOUND('',#219,.T.);
#172=FACE_OUTER_BOUND('',#220,.T.);
#173=FACE_OUTER_BOUND('',#221,.T.);
#174=FACE_OUTER_BOUND('',#222,.T.);
#175=EDGE_LOOP('',(#649,#650,#651,#652));
#176=EDGE_LOOP('',(#653,#654,#655,#656));
#177=EDGE_LOOP('',(#657,#658,#659,#660));
#178=EDGE_LOOP('',(#661,#662,#663,#664,#665,#666,#667,#668));
#179=EDGE_LOOP('',(#669,#670,#671,#672,#673,#674,#675,#676,#677,#678,#679,
#680,#681,#682,#683,#684,#685,#686,#687,#688,#689,#690,#691,#692,#693,#694,
#695,#696,#697,#698,#699,#700,#701,#702));
#180=EDGE_LOOP('',(#703,#704,#705,#706));
#181=EDGE_LOOP('',(#707,#708,#709,#710));
#182=EDGE_LOOP('',(#711,#712,#713,#714));
#183=EDGE_LOOP('',(#715,#716,#717,#718,#719,#720,#721,#722));
#184=EDGE_LOOP('',(#723));
#185=EDGE_LOOP('',(#724,#725,#726,#727,#728,#729,#730,#731,#732,#733,#734,
#735,#736,#737,#738,#739,#740,#741,#742,#743,#744,#745));
#186=EDGE_LOOP('',(#746,#747,#748,#749));
#187=EDGE_LOOP('',(#750,#751,#752,#753,#754,#755,#756,#757));
#188=EDGE_LOOP('',(#758));
#189=EDGE_LOOP('',(#759,#760,#761,#762));
#190=EDGE_LOOP('',(#763,#764,#765,#766,#767,#768,#769,#770));
#191=EDGE_LOOP('',(#771));
#192=EDGE_LOOP('',(#772,#773,#774,#775));
#193=EDGE_LOOP('',(#776,#777,#778,#779,#780,#781,#782,#783));
#194=EDGE_LOOP('',(#784));
#195=EDGE_LOOP('',(#785,#786,#787,#788));
#196=EDGE_LOOP('',(#789,#790,#791,#792));
#197=EDGE_LOOP('',(#793,#794,#795,#796,#797,#798,#799,#800,#801,#802,#803,
#804));
#198=EDGE_LOOP('',(#805,#806,#807,#808));
#199=EDGE_LOOP('',(#809,#810,#811,#812));
#200=EDGE_LOOP('',(#813,#814,#815,#816));
#201=EDGE_LOOP('',(#817,#818,#819,#820));
#202=EDGE_LOOP('',(#821,#822,#823,#824));
#203=EDGE_LOOP('',(#825,#826,#827,#828));
#204=EDGE_LOOP('',(#829,#830,#831,#832,#833,#834,#835,#836));
#205=EDGE_LOOP('',(#837,#838,#839,#840,#841,#842));
#206=EDGE_LOOP('',(#843,#844,#845,#846,#847,#848));
#207=EDGE_LOOP('',(#849,#850,#851,#852,#853,#854,#855,#856,#857,#858,#859,
#860));
#208=EDGE_LOOP('',(#861,#862,#863,#864));
#209=EDGE_LOOP('',(#865,#866,#867,#868));
#210=EDGE_LOOP('',(#869,#870,#871,#872));
#211=EDGE_LOOP('',(#873,#874,#875,#876));
#212=EDGE_LOOP('',(#877,#878,#879,#880));
#213=EDGE_LOOP('',(#881,#882,#883,#884));
#214=EDGE_LOOP('',(#885,#886,#887,#888));
#215=EDGE_LOOP('',(#889,#890,#891,#892));
#216=EDGE_LOOP('',(#893,#894,#895,#896));
#217=EDGE_LOOP('',(#897,#898,#899,#900));
#218=EDGE_LOOP('',(#901,#902,#903,#904));
#219=EDGE_LOOP('',(#905,#906,#907,#908));
#220=EDGE_LOOP('',(#909,#910,#911,#912));
#221=EDGE_LOOP('',(#913,#914,#915,#916));
#222=EDGE_LOOP('',(#917,#918,#919,#920,#921,#922,#923,#924));
#223=LINE('',#1478,#321);
#224=LINE('',#1480,#322);
#225=LINE('',#1482,#323);
#226=LINE('',#1483,#324);
#227=LINE('',#1486,#325);
#228=LINE('',#1488,#326);
#229=LINE('',#1489,#327);
#230=LINE('',#1492,#328);
#231=LINE('',#1493,#329);
#232=LINE('',#1496,#330);
#233=LINE('',#1498,#331);
#234=LINE('',#1500,#332);
#235=LINE('',#1502,#333);
#236=LINE('',#1504,#334);
#237=LINE('',#1505,#335);
#238=LINE('',#1508,#336);
#239=LINE('',#1510,#337);
#240=LINE('',#1514,#338);
#241=LINE('',#1518,#339);
#242=LINE('',#1522,#340);
#243=LINE('',#1526,#341);
#244=LINE('',#1528,#342);
#245=LINE('',#1530,#343);
#246=LINE('',#1532,#344);
#247=LINE('',#1534,#345);
#248=LINE('',#1542,#346);
#249=LINE('',#1550,#347);
#250=LINE('',#1560,#348);
#251=LINE('',#1571,#349);
#252=LINE('',#1573,#350);
#253=LINE('',#1575,#351);
#254=LINE('',#1576,#352);
#255=LINE('',#1578,#353);
#256=LINE('',#1579,#354);
#257=LINE('',#1581,#355);
#258=LINE('',#1586,#356);
#259=LINE('',#1589,#357);
#260=LINE('',#1591,#358);
#261=LINE('',#1598,#359);
#262=LINE('',#1600,#360);
#263=LINE('',#1602,#361);
#264=LINE('',#1603,#362);
#265=LINE('',#1611,#363);
#266=LINE('',#1619,#364);
#267=LINE('',#1629,#365);
#268=LINE('',#1632,#366);
#269=LINE('',#1636,#367);
#270=LINE('',#1637,#368);
#271=LINE('',#1638,#369);
#272=LINE('',#1641,#370);
#273=LINE('',#1645,#371);
#274=LINE('',#1646,#372);
#275=LINE('',#1647,#373);
#276=LINE('',#1650,#374);
#277=LINE('',#1654,#375);
#278=LINE('',#1655,#376);
#279=LINE('',#1656,#377);
#280=LINE('',#1659,#378);
#281=LINE('',#1663,#379);
#282=LINE('',#1665,#380);
#283=LINE('',#1667,#381);
#284=LINE('',#1668,#382);
#285=LINE('',#1672,#383);
#286=LINE('',#1674,#384);
#287=LINE('',#1675,#385);
#288=LINE('',#1677,#386);
#289=LINE('',#1679,#387);
#290=LINE('',#1681,#388);
#291=LINE('',#1682,#389);
#292=LINE('',#1684,#390);
#293=LINE('',#1686,#391);
#294=LINE('',#1687,#392);
#295=LINE('',#1690,#393);
#296=LINE('',#1692,#394);
#297=LINE('',#1693,#395);
#298=LINE('',#1695,#396);
#299=LINE('',#1697,#397);
#300=LINE('',#1698,#398);
#301=LINE('',#1700,#399);
#302=LINE('',#1703,#400);
#303=LINE('',#1705,#401);
#304=LINE('',#1707,#402);
#305=LINE('',#1709,#403);
#306=LINE('',#1712,#404);
#307=LINE('',#1714,#405);
#308=LINE('',#1715,#406);
#309=LINE('',#1717,#407);
#310=LINE('',#1719,#408);
#311=LINE('',#1723,#409);
#312=LINE('',#1729,#410);
#313=LINE('',#1730,#411);
#314=LINE('',#1731,#412);
#315=LINE('',#1735,#413);
#316=LINE('',#1738,#414);
#317=LINE('',#1739,#415);
#318=LINE('',#1743,#416);
#319=LINE('',#1746,#417);
#320=LINE('',#1747,#418);
#321=VECTOR('',#1170,10.);
#322=VECTOR('',#1171,10.);
#323=VECTOR('',#1172,10.);
#324=VECTOR('',#1173,10.);
#325=VECTOR('',#1176,10.);
#326=VECTOR('',#1177,10.);
#327=VECTOR('',#1178,10.);
#328=VECTOR('',#1181,10.);
#329=VECTOR('',#1182,10.);
#330=VECTOR('',#1185,10.);
#331=VECTOR('',#1186,10.);
#332=VECTOR('',#1187,10.);
#333=VECTOR('',#1188,10.);
#334=VECTOR('',#1189,10.);
#335=VECTOR('',#1190,10.);
#336=VECTOR('',#1193,10.);
#337=VECTOR('',#1194,10.);
#338=VECTOR('',#1197,10.);
#339=VECTOR('',#1200,10.);
#340=VECTOR('',#1203,10.);
#341=VECTOR('',#1206,10.);
#342=VECTOR('',#1207,10.);
#343=VECTOR('',#1208,10.);
#344=VECTOR('',#1209,10.);
#345=VECTOR('',#1210,10.);
#346=VECTOR('',#1217,10.);
#347=VECTOR('',#1224,10.);
#348=VECTOR('',#1233,10.);
#349=VECTOR('',#1244,10.);
#350=VECTOR('',#1245,10.);
#351=VECTOR('',#1246,10.);
#352=VECTOR('',#1247,10.);
#353=VECTOR('',#1250,10.);
#354=VECTOR('',#1251,10.);
#355=VECTOR('',#1254,10.);
#356=VECTOR('',#1259,1.05);
#357=VECTOR('',#1262,10.);
#358=VECTOR('',#1263,10.);
#359=VECTOR('',#1272,10.);
#360=VECTOR('',#1273,10.);
#361=VECTOR('',#1274,10.);
#362=VECTOR('',#1275,10.);
#363=VECTOR('',#1282,10.);
#364=VECTOR('',#1289,10.);
#365=VECTOR('',#1298,10.);
#366=VECTOR('',#1303,10.);
#367=VECTOR('',#1308,1.05);
#368=VECTOR('',#1309,10.);
#369=VECTOR('',#1310,10.);
#370=VECTOR('',#1315,10.);
#371=VECTOR('',#1320,1.05);
#372=VECTOR('',#1321,10.);
#373=VECTOR('',#1322,10.);
#374=VECTOR('',#1327,10.);
#375=VECTOR('',#1332,1.05);
#376=VECTOR('',#1333,10.);
#377=VECTOR('',#1334,10.);
#378=VECTOR('',#1339,10.);
#379=VECTOR('',#1342,10.);
#380=VECTOR('',#1343,10.);
#381=VECTOR('',#1344,10.);
#382=VECTOR('',#1345,10.);
#383=VECTOR('',#1348,10.);
#384=VECTOR('',#1349,10.);
#385=VECTOR('',#1350,10.);
#386=VECTOR('',#1351,10.);
#387=VECTOR('',#1352,10.);
#388=VECTOR('',#1353,10.);
#389=VECTOR('',#1354,10.);
#390=VECTOR('',#1355,10.);
#391=VECTOR('',#1356,10.);
#392=VECTOR('',#1357,10.);
#393=VECTOR('',#1360,10.);
#394=VECTOR('',#1361,10.);
#395=VECTOR('',#1362,10.);
#396=VECTOR('',#1365,10.);
#397=VECTOR('',#1368,10.);
#398=VECTOR('',#1369,10.);
#399=VECTOR('',#1372,10.);
#400=VECTOR('',#1377,10.);
#401=VECTOR('',#1380,10.);
#402=VECTOR('',#1383,10.);
#403=VECTOR('',#1386,10.);
#404=VECTOR('',#1389,10.);
#405=VECTOR('',#1390,10.);
#406=VECTOR('',#1391,10.);
#407=VECTOR('',#1394,10.);
#408=VECTOR('',#1397,10.);
#409=VECTOR('',#1404,10.);
#410=VECTOR('',#1411,10.);
#411=VECTOR('',#1412,10.);
#412=VECTOR('',#1413,10.);
#413=VECTOR('',#1418,10.);
#414=VECTOR('',#1421,10.);
#415=VECTOR('',#1422,10.);
#416=VECTOR('',#1427,10.);
#417=VECTOR('',#1430,10.);
#418=VECTOR('',#1431,10.);
#419=VERTEX_POINT('',#1476);
#420=VERTEX_POINT('',#1477);
#421=VERTEX_POINT('',#1479);
#422=VERTEX_POINT('',#1481);
#423=VERTEX_POINT('',#1485);
#424=VERTEX_POINT('',#1487);
#425=VERTEX_POINT('',#1491);
#426=VERTEX_POINT('',#1495);
#427=VERTEX_POINT('',#1497);
#428=VERTEX_POINT('',#1499);
#429=VERTEX_POINT('',#1501);
#430=VERTEX_POINT('',#1503);
#431=VERTEX_POINT('',#1507);
#432=VERTEX_POINT('',#1509);
#433=VERTEX_POINT('',#1511);
#434=VERTEX_POINT('',#1513);
#435=VERTEX_POINT('',#1515);
#436=VERTEX_POINT('',#1517);
#437=VERTEX_POINT('',#1519);
#438=VERTEX_POINT('',#1521);
#439=VERTEX_POINT('',#1523);
#440=VERTEX_POINT('',#1525);
#441=VERTEX_POINT('',#1527);
#442=VERTEX_POINT('',#1529);
#443=VERTEX_POINT('',#1531);
#444=VERTEX_POINT('',#1533);
#445=VERTEX_POINT('',#1535);
#446=VERTEX_POINT('',#1537);
#447=VERTEX_POINT('',#1539);
#448=VERTEX_POINT('',#1541);
#449=VERTEX_POINT('',#1543);
#450=VERTEX_POINT('',#1545);
#451=VERTEX_POINT('',#1547);
#452=VERTEX_POINT('',#1549);
#453=VERTEX_POINT('',#1551);
#454=VERTEX_POINT('',#1553);
#455=VERTEX_POINT('',#1555);
#456=VERTEX_POINT('',#1557);
#457=VERTEX_POINT('',#1559);
#458=VERTEX_POINT('',#1561);
#459=VERTEX_POINT('',#1563);
#460=VERTEX_POINT('',#1565);
#461=VERTEX_POINT('',#1569);
#462=VERTEX_POINT('',#1570);
#463=VERTEX_POINT('',#1572);
#464=VERTEX_POINT('',#1574);
#465=VERTEX_POINT('',#1583);
#466=VERTEX_POINT('',#1585);
#467=VERTEX_POINT('',#1587);
#468=VERTEX_POINT('',#1590);
#469=VERTEX_POINT('',#1595);
#470=VERTEX_POINT('',#1597);
#471=VERTEX_POINT('',#1599);
#472=VERTEX_POINT('',#1601);
#473=VERTEX_POINT('',#1604);
#474=VERTEX_POINT('',#1606);
#475=VERTEX_POINT('',#1608);
#476=VERTEX_POINT('',#1610);
#477=VERTEX_POINT('',#1612);
#478=VERTEX_POINT('',#1614);
#479=VERTEX_POINT('',#1616);
#480=VERTEX_POINT('',#1618);
#481=VERTEX_POINT('',#1620);
#482=VERTEX_POINT('',#1622);
#483=VERTEX_POINT('',#1624);
#484=VERTEX_POINT('',#1626);
#485=VERTEX_POINT('',#1628);
#486=VERTEX_POINT('',#1634);
#487=VERTEX_POINT('',#1643);
#488=VERTEX_POINT('',#1652);
#489=VERTEX_POINT('',#1661);
#490=VERTEX_POINT('',#1662);
#491=VERTEX_POINT('',#1664);
#492=VERTEX_POINT('',#1666);
#493=VERTEX_POINT('',#1670);
#494=VERTEX_POINT('',#1671);
#495=VERTEX_POINT('',#1673);
#496=VERTEX_POINT('',#1676);
#497=VERTEX_POINT('',#1678);
#498=VERTEX_POINT('',#1680);
#499=VERTEX_POINT('',#1683);
#500=VERTEX_POINT('',#1685);
#501=VERTEX_POINT('',#1689);
#502=VERTEX_POINT('',#1691);
#503=VERTEX_POINT('',#1711);
#504=VERTEX_POINT('',#1713);
#505=VERTEX_POINT('',#1727);
#506=VERTEX_POINT('',#1728);
#507=VERTEX_POINT('',#1733);
#508=VERTEX_POINT('',#1737);
#509=VERTEX_POINT('',#1741);
#510=VERTEX_POINT('',#1745);
#511=EDGE_CURVE('',#419,#420,#223,.T.);
#512=EDGE_CURVE('',#419,#421,#224,.T.);
#513=EDGE_CURVE('',#421,#422,#225,.T.);
#514=EDGE_CURVE('',#420,#422,#226,.T.);
#515=EDGE_CURVE('',#423,#419,#227,.T.);
#516=EDGE_CURVE('',#424,#423,#228,.T.);
#517=EDGE_CURVE('',#424,#421,#229,.T.);
#518=EDGE_CURVE('',#425,#424,#230,.T.);
#519=EDGE_CURVE('',#422,#425,#231,.T.);
#520=EDGE_CURVE('',#426,#420,#232,.T.);
#521=EDGE_CURVE('',#427,#426,#233,.T.);
#522=EDGE_CURVE('',#427,#428,#234,.T.);
#523=EDGE_CURVE('',#428,#429,#235,.T.);
#524=EDGE_CURVE('',#429,#430,#236,.T.);
#525=EDGE_CURVE('',#430,#423,#237,.T.);
#526=EDGE_CURVE('',#425,#431,#238,.T.);
#527=EDGE_CURVE('',#431,#432,#239,.T.);
#528=EDGE_CURVE('',#432,#433,#87,.T.);
#529=EDGE_CURVE('',#433,#434,#240,.T.);
#530=EDGE_CURVE('',#434,#435,#88,.T.);
#531=EDGE_CURVE('',#435,#436,#241,.T.);
#532=EDGE_CURVE('',#436,#437,#89,.T.);
#533=EDGE_CURVE('',#437,#438,#242,.T.);
#534=EDGE_CURVE('',#438,#439,#90,.T.);
#535=EDGE_CURVE('',#439,#440,#243,.T.);
#536=EDGE_CURVE('',#440,#441,#244,.T.);
#537=EDGE_CURVE('',#441,#442,#245,.T.);
#538=EDGE_CURVE('',#442,#443,#246,.T.);
#539=EDGE_CURVE('',#443,#444,#247,.T.);
#540=EDGE_CURVE('',#444,#445,#91,.T.);
#541=EDGE_CURVE('',#445,#446,#92,.T.);
#542=EDGE_CURVE('',#446,#447,#93,.T.);
#543=EDGE_CURVE('',#447,#448,#248,.T.);
#544=EDGE_CURVE('',#448,#449,#94,.T.);
#545=EDGE_CURVE('',#449,#450,#95,.T.);
#546=EDGE_CURVE('',#450,#451,#96,.T.);
#547=EDGE_CURVE('',#451,#452,#249,.T.);
#548=EDGE_CURVE('',#452,#453,#97,.T.);
#549=EDGE_CURVE('',#453,#454,#98,.T.);
#550=EDGE_CURVE('',#454,#455,#99,.T.);
#551=EDGE_CURVE('',#455,#456,#100,.T.);
#552=EDGE_CURVE('',#456,#457,#250,.T.);
#553=EDGE_CURVE('',#457,#458,#101,.T.);
#554=EDGE_CURVE('',#458,#459,#102,.T.);
#555=EDGE_CURVE('',#459,#460,#103,.T.);
#556=EDGE_CURVE('',#460,#426,#104,.T.);
#557=EDGE_CURVE('',#461,#462,#251,.T.);
#558=EDGE_CURVE('',#461,#463,#252,.T.);
#559=EDGE_CURVE('',#463,#464,#253,.T.);
#560=EDGE_CURVE('',#462,#464,#254,.T.);
#561=EDGE_CURVE('',#443,#461,#255,.T.);
#562=EDGE_CURVE('',#442,#463,#256,.T.);
#563=EDGE_CURVE('',#464,#441,#257,.T.);
#564=EDGE_CURVE('',#465,#465,#105,.T.);
#565=EDGE_CURVE('',#465,#466,#258,.T.);
#566=EDGE_CURVE('',#467,#466,#106,.T.);
#567=EDGE_CURVE('',#446,#467,#259,.T.);
#568=EDGE_CURVE('',#468,#445,#260,.T.);
#569=EDGE_CURVE('',#466,#468,#107,.T.);
#570=EDGE_CURVE('',#469,#468,#108,.T.);
#571=EDGE_CURVE('',#470,#469,#261,.T.);
#572=EDGE_CURVE('',#470,#471,#262,.T.);
#573=EDGE_CURVE('',#471,#472,#263,.T.);
#574=EDGE_CURVE('',#472,#428,#264,.T.);
#575=EDGE_CURVE('',#473,#427,#109,.T.);
#576=EDGE_CURVE('',#473,#474,#110,.T.);
#577=EDGE_CURVE('',#475,#474,#111,.T.);
#578=EDGE_CURVE('',#476,#475,#265,.T.);
#579=EDGE_CURVE('',#477,#476,#112,.T.);
#580=EDGE_CURVE('',#477,#478,#113,.T.);
#581=EDGE_CURVE('',#479,#478,#114,.T.);
#582=EDGE_CURVE('',#480,#479,#266,.T.);
#583=EDGE_CURVE('',#481,#480,#115,.T.);
#584=EDGE_CURVE('',#481,#482,#116,.T.);
#585=EDGE_CURVE('',#482,#483,#117,.T.);
#586=EDGE_CURVE('',#484,#483,#118,.T.);
#587=EDGE_CURVE('',#485,#484,#267,.T.);
#588=EDGE_CURVE('',#467,#485,#119,.T.);
#589=EDGE_CURVE('',#469,#444,#268,.T.);
#590=EDGE_CURVE('',#486,#486,#120,.T.);
#591=EDGE_CURVE('',#486,#482,#269,.T.);
#592=EDGE_CURVE('',#450,#481,#270,.T.);
#593=EDGE_CURVE('',#483,#449,#271,.T.);
#594=EDGE_CURVE('',#484,#448,#272,.T.);
#595=EDGE_CURVE('',#487,#487,#121,.T.);
#596=EDGE_CURVE('',#487,#459,#273,.T.);
#597=EDGE_CURVE('',#474,#458,#274,.T.);
#598=EDGE_CURVE('',#460,#473,#275,.T.);
#599=EDGE_CURVE('',#475,#457,#276,.T.);
#600=EDGE_CURVE('',#488,#488,#122,.T.);
#601=EDGE_CURVE('',#488,#454,#277,.T.);
#602=EDGE_CURVE('',#478,#453,#278,.T.);
#603=EDGE_CURVE('',#455,#477,#279,.T.);
#604=EDGE_CURVE('',#479,#452,#280,.T.);
#605=EDGE_CURVE('',#489,#490,#281,.T.);
#606=EDGE_CURVE('',#489,#491,#282,.T.);
#607=EDGE_CURVE('',#491,#492,#283,.T.);
#608=EDGE_CURVE('',#490,#492,#284,.T.);
#609=EDGE_CURVE('',#493,#494,#285,.T.);
#610=EDGE_CURVE('',#495,#493,#286,.T.);
#611=EDGE_CURVE('',#490,#495,#287,.T.);
#612=EDGE_CURVE('',#492,#496,#288,.T.);
#613=EDGE_CURVE('',#496,#497,#289,.T.);
#614=EDGE_CURVE('',#498,#497,#290,.T.);
#615=EDGE_CURVE('',#430,#498,#291,.T.);
#616=EDGE_CURVE('',#429,#499,#292,.T.);
#617=EDGE_CURVE('',#499,#500,#293,.T.);
#618=EDGE_CURVE('',#500,#494,#294,.T.);
#619=EDGE_CURVE('',#497,#501,#295,.T.);
#620=EDGE_CURVE('',#502,#496,#296,.T.);
#621=EDGE_CURVE('',#502,#501,#297,.T.);
#622=EDGE_CURVE('',#472,#499,#298,.T.);
#623=EDGE_CURVE('',#501,#489,#299,.T.);
#624=EDGE_CURVE('',#491,#502,#300,.T.);
#625=EDGE_CURVE('',#471,#500,#301,.T.);
#626=EDGE_CURVE('',#494,#470,#302,.T.);
#627=EDGE_CURVE('',#462,#493,#303,.T.);
#628=EDGE_CURVE('',#431,#498,#304,.T.);
#629=EDGE_CURVE('',#495,#440,#305,.T.);
#630=EDGE_CURVE('',#503,#439,#306,.T.);
#631=EDGE_CURVE('',#504,#503,#307,.T.);
#632=EDGE_CURVE('',#504,#432,#308,.T.);
#633=EDGE_CURVE('',#480,#451,#309,.T.);
#634=EDGE_CURVE('',#476,#456,#310,.T.);
#635=EDGE_CURVE('',#485,#447,#311,.T.);
#636=EDGE_CURVE('',#505,#506,#312,.T.);
#637=EDGE_CURVE('',#506,#438,#313,.T.);
#638=EDGE_CURVE('',#505,#437,#314,.T.);
#639=EDGE_CURVE('',#507,#505,#123,.T.);
#640=EDGE_CURVE('',#507,#436,#315,.T.);
#641=EDGE_CURVE('',#508,#507,#316,.T.);
#642=EDGE_CURVE('',#508,#435,#317,.T.);
#643=EDGE_CURVE('',#509,#508,#124,.T.);
#644=EDGE_CURVE('',#509,#434,#318,.T.);
#645=EDGE_CURVE('',#509,#510,#319,.T.);
#646=EDGE_CURVE('',#510,#433,#320,.T.);
#647=EDGE_CURVE('',#504,#510,#125,.T.);
#648=EDGE_CURVE('',#506,#503,#126,.T.);
#649=ORIENTED_EDGE('',*,*,#511,.F.);
#650=ORIENTED_EDGE('',*,*,#512,.T.);
#651=ORIENTED_EDGE('',*,*,#513,.T.);
#652=ORIENTED_EDGE('',*,*,#514,.F.);
#653=ORIENTED_EDGE('',*,*,#515,.F.);
#654=ORIENTED_EDGE('',*,*,#516,.F.);
#655=ORIENTED_EDGE('',*,*,#517,.T.);
#656=ORIENTED_EDGE('',*,*,#512,.F.);
#657=ORIENTED_EDGE('',*,*,#517,.F.);
#658=ORIENTED_EDGE('',*,*,#518,.F.);
#659=ORIENTED_EDGE('',*,*,#519,.F.);
#660=ORIENTED_EDGE('',*,*,#513,.F.);
#661=ORIENTED_EDGE('',*,*,#515,.T.);
#662=ORIENTED_EDGE('',*,*,#511,.T.);
#663=ORIENTED_EDGE('',*,*,#520,.F.);
#664=ORIENTED_EDGE('',*,*,#521,.F.);
#665=ORIENTED_EDGE('',*,*,#522,.T.);
#666=ORIENTED_EDGE('',*,*,#523,.T.);
#667=ORIENTED_EDGE('',*,*,#524,.T.);
#668=ORIENTED_EDGE('',*,*,#525,.T.);
#669=ORIENTED_EDGE('',*,*,#514,.T.);
#670=ORIENTED_EDGE('',*,*,#519,.T.);
#671=ORIENTED_EDGE('',*,*,#526,.T.);
#672=ORIENTED_EDGE('',*,*,#527,.T.);
#673=ORIENTED_EDGE('',*,*,#528,.T.);
#674=ORIENTED_EDGE('',*,*,#529,.T.);
#675=ORIENTED_EDGE('',*,*,#530,.T.);
#676=ORIENTED_EDGE('',*,*,#531,.T.);
#677=ORIENTED_EDGE('',*,*,#532,.T.);
#678=ORIENTED_EDGE('',*,*,#533,.T.);
#679=ORIENTED_EDGE('',*,*,#534,.T.);
#680=ORIENTED_EDGE('',*,*,#535,.T.);
#681=ORIENTED_EDGE('',*,*,#536,.T.);
#682=ORIENTED_EDGE('',*,*,#537,.T.);
#683=ORIENTED_EDGE('',*,*,#538,.T.);
#684=ORIENTED_EDGE('',*,*,#539,.T.);
#685=ORIENTED_EDGE('',*,*,#540,.T.);
#686=ORIENTED_EDGE('',*,*,#541,.T.);
#687=ORIENTED_EDGE('',*,*,#542,.T.);
#688=ORIENTED_EDGE('',*,*,#543,.T.);
#689=ORIENTED_EDGE('',*,*,#544,.T.);
#690=ORIENTED_EDGE('',*,*,#545,.T.);
#691=ORIENTED_EDGE('',*,*,#546,.T.);
#692=ORIENTED_EDGE('',*,*,#547,.T.);
#693=ORIENTED_EDGE('',*,*,#548,.T.);
#694=ORIENTED_EDGE('',*,*,#549,.T.);
#695=ORIENTED_EDGE('',*,*,#550,.T.);
#696=ORIENTED_EDGE('',*,*,#551,.T.);
#697=ORIENTED_EDGE('',*,*,#552,.T.);
#698=ORIENTED_EDGE('',*,*,#553,.T.);
#699=ORIENTED_EDGE('',*,*,#554,.T.);
#700=ORIENTED_EDGE('',*,*,#555,.T.);
#701=ORIENTED_EDGE('',*,*,#556,.T.);
#702=ORIENTED_EDGE('',*,*,#520,.T.);
#703=ORIENTED_EDGE('',*,*,#557,.F.);
#704=ORIENTED_EDGE('',*,*,#558,.T.);
#705=ORIENTED_EDGE('',*,*,#559,.T.);
#706=ORIENTED_EDGE('',*,*,#560,.F.);
#707=ORIENTED_EDGE('',*,*,#561,.F.);
#708=ORIENTED_EDGE('',*,*,#538,.F.);
#709=ORIENTED_EDGE('',*,*,#562,.T.);
#710=ORIENTED_EDGE('',*,*,#558,.F.);
#711=ORIENTED_EDGE('',*,*,#562,.F.);
#712=ORIENTED_EDGE('',*,*,#537,.F.);
#713=ORIENTED_EDGE('',*,*,#563,.F.);
#714=ORIENTED_EDGE('',*,*,#559,.F.);
#715=ORIENTED_EDGE('',*,*,#564,.F.);
#716=ORIENTED_EDGE('',*,*,#565,.T.);
#717=ORIENTED_EDGE('',*,*,#566,.F.);
#718=ORIENTED_EDGE('',*,*,#567,.F.);
#719=ORIENTED_EDGE('',*,*,#541,.F.);
#720=ORIENTED_EDGE('',*,*,#568,.F.);
#721=ORIENTED_EDGE('',*,*,#569,.F.);
#722=ORIENTED_EDGE('',*,*,#565,.F.);
#723=ORIENTED_EDGE('',*,*,#564,.T.);
#724=ORIENTED_EDGE('',*,*,#566,.T.);
#725=ORIENTED_EDGE('',*,*,#569,.T.);
#726=ORIENTED_EDGE('',*,*,#570,.F.);
#727=ORIENTED_EDGE('',*,*,#571,.F.);
#728=ORIENTED_EDGE('',*,*,#572,.T.);
#729=ORIENTED_EDGE('',*,*,#573,.T.);
#730=ORIENTED_EDGE('',*,*,#574,.T.);
#731=ORIENTED_EDGE('',*,*,#522,.F.);
#732=ORIENTED_EDGE('',*,*,#575,.F.);
#733=ORIENTED_EDGE('',*,*,#576,.T.);
#734=ORIENTED_EDGE('',*,*,#577,.F.);
#735=ORIENTED_EDGE('',*,*,#578,.F.);
#736=ORIENTED_EDGE('',*,*,#579,.F.);
#737=ORIENTED_EDGE('',*,*,#580,.T.);
#738=ORIENTED_EDGE('',*,*,#581,.F.);
#739=ORIENTED_EDGE('',*,*,#582,.F.);
#740=ORIENTED_EDGE('',*,*,#583,.F.);
#741=ORIENTED_EDGE('',*,*,#584,.T.);
#742=ORIENTED_EDGE('',*,*,#585,.T.);
#743=ORIENTED_EDGE('',*,*,#586,.F.);
#744=ORIENTED_EDGE('',*,*,#587,.F.);
#745=ORIENTED_EDGE('',*,*,#588,.F.);
#746=ORIENTED_EDGE('',*,*,#568,.T.);
#747=ORIENTED_EDGE('',*,*,#540,.F.);
#748=ORIENTED_EDGE('',*,*,#589,.F.);
#749=ORIENTED_EDGE('',*,*,#570,.T.);
#750=ORIENTED_EDGE('',*,*,#590,.F.);
#751=ORIENTED_EDGE('',*,*,#591,.T.);
#752=ORIENTED_EDGE('',*,*,#584,.F.);
#753=ORIENTED_EDGE('',*,*,#592,.F.);
#754=ORIENTED_EDGE('',*,*,#545,.F.);
#755=ORIENTED_EDGE('',*,*,#593,.F.);
#756=ORIENTED_EDGE('',*,*,#585,.F.);
#757=ORIENTED_EDGE('',*,*,#591,.F.);
#758=ORIENTED_EDGE('',*,*,#590,.T.);
#759=ORIENTED_EDGE('',*,*,#593,.T.);
#760=ORIENTED_EDGE('',*,*,#544,.F.);
#761=ORIENTED_EDGE('',*,*,#594,.F.);
#762=ORIENTED_EDGE('',*,*,#586,.T.);
#763=ORIENTED_EDGE('',*,*,#595,.F.);
#764=ORIENTED_EDGE('',*,*,#596,.T.);
#765=ORIENTED_EDGE('',*,*,#554,.F.);
#766=ORIENTED_EDGE('',*,*,#597,.F.);
#767=ORIENTED_EDGE('',*,*,#576,.F.);
#768=ORIENTED_EDGE('',*,*,#598,.F.);
#769=ORIENTED_EDGE('',*,*,#555,.F.);
#770=ORIENTED_EDGE('',*,*,#596,.F.);
#771=ORIENTED_EDGE('',*,*,#595,.T.);
#772=ORIENTED_EDGE('',*,*,#597,.T.);
#773=ORIENTED_EDGE('',*,*,#553,.F.);
#774=ORIENTED_EDGE('',*,*,#599,.F.);
#775=ORIENTED_EDGE('',*,*,#577,.T.);
#776=ORIENTED_EDGE('',*,*,#600,.F.);
#777=ORIENTED_EDGE('',*,*,#601,.T.);
#778=ORIENTED_EDGE('',*,*,#549,.F.);
#779=ORIENTED_EDGE('',*,*,#602,.F.);
#780=ORIENTED_EDGE('',*,*,#580,.F.);
#781=ORIENTED_EDGE('',*,*,#603,.F.);
#782=ORIENTED_EDGE('',*,*,#550,.F.);
#783=ORIENTED_EDGE('',*,*,#601,.F.);
#784=ORIENTED_EDGE('',*,*,#600,.T.);
#785=ORIENTED_EDGE('',*,*,#602,.T.);
#786=ORIENTED_EDGE('',*,*,#548,.F.);
#787=ORIENTED_EDGE('',*,*,#604,.F.);
#788=ORIENTED_EDGE('',*,*,#581,.T.);
#789=ORIENTED_EDGE('',*,*,#605,.F.);
#790=ORIENTED_EDGE('',*,*,#606,.T.);
#791=ORIENTED_EDGE('',*,*,#607,.T.);
#792=ORIENTED_EDGE('',*,*,#608,.F.);
#793=ORIENTED_EDGE('',*,*,#609,.F.);
#794=ORIENTED_EDGE('',*,*,#610,.F.);
#795=ORIENTED_EDGE('',*,*,#611,.F.);
#796=ORIENTED_EDGE('',*,*,#608,.T.);
#797=ORIENTED_EDGE('',*,*,#612,.T.);
#798=ORIENTED_EDGE('',*,*,#613,.T.);
#799=ORIENTED_EDGE('',*,*,#614,.F.);
#800=ORIENTED_EDGE('',*,*,#615,.F.);
#801=ORIENTED_EDGE('',*,*,#524,.F.);
#802=ORIENTED_EDGE('',*,*,#616,.T.);
#803=ORIENTED_EDGE('',*,*,#617,.T.);
#804=ORIENTED_EDGE('',*,*,#618,.T.);
#805=ORIENTED_EDGE('',*,*,#619,.F.);
#806=ORIENTED_EDGE('',*,*,#613,.F.);
#807=ORIENTED_EDGE('',*,*,#620,.F.);
#808=ORIENTED_EDGE('',*,*,#621,.T.);
#809=ORIENTED_EDGE('',*,*,#523,.F.);
#810=ORIENTED_EDGE('',*,*,#574,.F.);
#811=ORIENTED_EDGE('',*,*,#622,.T.);
#812=ORIENTED_EDGE('',*,*,#616,.F.);
#813=ORIENTED_EDGE('',*,*,#623,.F.);
#814=ORIENTED_EDGE('',*,*,#621,.F.);
#815=ORIENTED_EDGE('',*,*,#624,.F.);
#816=ORIENTED_EDGE('',*,*,#606,.F.);
#817=ORIENTED_EDGE('',*,*,#573,.F.);
#818=ORIENTED_EDGE('',*,*,#625,.T.);
#819=ORIENTED_EDGE('',*,*,#617,.F.);
#820=ORIENTED_EDGE('',*,*,#622,.F.);
#821=ORIENTED_EDGE('',*,*,#624,.T.);
#822=ORIENTED_EDGE('',*,*,#620,.T.);
#823=ORIENTED_EDGE('',*,*,#612,.F.);
#824=ORIENTED_EDGE('',*,*,#607,.F.);
#825=ORIENTED_EDGE('',*,*,#626,.F.);
#826=ORIENTED_EDGE('',*,*,#618,.F.);
#827=ORIENTED_EDGE('',*,*,#625,.F.);
#828=ORIENTED_EDGE('',*,*,#572,.F.);
#829=ORIENTED_EDGE('',*,*,#557,.T.);
#830=ORIENTED_EDGE('',*,*,#627,.T.);
#831=ORIENTED_EDGE('',*,*,#609,.T.);
#832=ORIENTED_EDGE('',*,*,#626,.T.);
#833=ORIENTED_EDGE('',*,*,#571,.T.);
#834=ORIENTED_EDGE('',*,*,#589,.T.);
#835=ORIENTED_EDGE('',*,*,#539,.F.);
#836=ORIENTED_EDGE('',*,*,#561,.T.);
#837=ORIENTED_EDGE('',*,*,#516,.T.);
#838=ORIENTED_EDGE('',*,*,#525,.F.);
#839=ORIENTED_EDGE('',*,*,#615,.T.);
#840=ORIENTED_EDGE('',*,*,#628,.F.);
#841=ORIENTED_EDGE('',*,*,#526,.F.);
#842=ORIENTED_EDGE('',*,*,#518,.T.);
#843=ORIENTED_EDGE('',*,*,#563,.T.);
#844=ORIENTED_EDGE('',*,*,#536,.F.);
#845=ORIENTED_EDGE('',*,*,#629,.F.);
#846=ORIENTED_EDGE('',*,*,#610,.T.);
#847=ORIENTED_EDGE('',*,*,#627,.F.);
#848=ORIENTED_EDGE('',*,*,#560,.T.);
#849=ORIENTED_EDGE('',*,*,#611,.T.);
#850=ORIENTED_EDGE('',*,*,#629,.T.);
#851=ORIENTED_EDGE('',*,*,#535,.F.);
#852=ORIENTED_EDGE('',*,*,#630,.F.);
#853=ORIENTED_EDGE('',*,*,#631,.F.);
#854=ORIENTED_EDGE('',*,*,#632,.T.);
#855=ORIENTED_EDGE('',*,*,#527,.F.);
#856=ORIENTED_EDGE('',*,*,#628,.T.);
#857=ORIENTED_EDGE('',*,*,#614,.T.);
#858=ORIENTED_EDGE('',*,*,#619,.T.);
#859=ORIENTED_EDGE('',*,*,#623,.T.);
#860=ORIENTED_EDGE('',*,*,#605,.T.);
#861=ORIENTED_EDGE('',*,*,#582,.T.);
#862=ORIENTED_EDGE('',*,*,#604,.T.);
#863=ORIENTED_EDGE('',*,*,#547,.F.);
#864=ORIENTED_EDGE('',*,*,#633,.F.);
#865=ORIENTED_EDGE('',*,*,#603,.T.);
#866=ORIENTED_EDGE('',*,*,#579,.T.);
#867=ORIENTED_EDGE('',*,*,#634,.T.);
#868=ORIENTED_EDGE('',*,*,#551,.F.);
#869=ORIENTED_EDGE('',*,*,#578,.T.);
#870=ORIENTED_EDGE('',*,*,#599,.T.);
#871=ORIENTED_EDGE('',*,*,#552,.F.);
#872=ORIENTED_EDGE('',*,*,#634,.F.);
#873=ORIENTED_EDGE('',*,*,#598,.T.);
#874=ORIENTED_EDGE('',*,*,#575,.T.);
#875=ORIENTED_EDGE('',*,*,#521,.T.);
#876=ORIENTED_EDGE('',*,*,#556,.F.);
#877=ORIENTED_EDGE('',*,*,#567,.T.);
#878=ORIENTED_EDGE('',*,*,#588,.T.);
#879=ORIENTED_EDGE('',*,*,#635,.T.);
#880=ORIENTED_EDGE('',*,*,#542,.F.);
#881=ORIENTED_EDGE('',*,*,#592,.T.);
#882=ORIENTED_EDGE('',*,*,#583,.T.);
#883=ORIENTED_EDGE('',*,*,#633,.T.);
#884=ORIENTED_EDGE('',*,*,#546,.F.);
#885=ORIENTED_EDGE('',*,*,#587,.T.);
#886=ORIENTED_EDGE('',*,*,#594,.T.);
#887=ORIENTED_EDGE('',*,*,#543,.F.);
#888=ORIENTED_EDGE('',*,*,#635,.F.);
#889=ORIENTED_EDGE('',*,*,#636,.T.);
#890=ORIENTED_EDGE('',*,*,#637,.T.);
#891=ORIENTED_EDGE('',*,*,#533,.F.);
#892=ORIENTED_EDGE('',*,*,#638,.F.);
#893=ORIENTED_EDGE('',*,*,#639,.T.);
#894=ORIENTED_EDGE('',*,*,#638,.T.);
#895=ORIENTED_EDGE('',*,*,#532,.F.);
#896=ORIENTED_EDGE('',*,*,#640,.F.);
#897=ORIENTED_EDGE('',*,*,#641,.T.);
#898=ORIENTED_EDGE('',*,*,#640,.T.);
#899=ORIENTED_EDGE('',*,*,#531,.F.);
#900=ORIENTED_EDGE('',*,*,#642,.F.);
#901=ORIENTED_EDGE('',*,*,#643,.T.);
#902=ORIENTED_EDGE('',*,*,#642,.T.);
#903=ORIENTED_EDGE('',*,*,#530,.F.);
#904=ORIENTED_EDGE('',*,*,#644,.F.);
#905=ORIENTED_EDGE('',*,*,#645,.F.);
#906=ORIENTED_EDGE('',*,*,#644,.T.);
#907=ORIENTED_EDGE('',*,*,#529,.F.);
#908=ORIENTED_EDGE('',*,*,#646,.F.);
#909=ORIENTED_EDGE('',*,*,#647,.T.);
#910=ORIENTED_EDGE('',*,*,#646,.T.);
#911=ORIENTED_EDGE('',*,*,#528,.F.);
#912=ORIENTED_EDGE('',*,*,#632,.F.);
#913=ORIENTED_EDGE('',*,*,#648,.T.);
#914=ORIENTED_EDGE('',*,*,#630,.T.);
#915=ORIENTED_EDGE('',*,*,#534,.F.);
#916=ORIENTED_EDGE('',*,*,#637,.F.);
#917=ORIENTED_EDGE('',*,*,#648,.F.);
#918=ORIENTED_EDGE('',*,*,#636,.F.);
#919=ORIENTED_EDGE('',*,*,#639,.F.);
#920=ORIENTED_EDGE('',*,*,#641,.F.);
#921=ORIENTED_EDGE('',*,*,#643,.F.);
#922=ORIENTED_EDGE('',*,*,#645,.T.);
#923=ORIENTED_EDGE('',*,*,#647,.F.);
#924=ORIENTED_EDGE('',*,*,#631,.T.);
#925=PLANE('',#1056);
#926=PLANE('',#1057);
#927=PLANE('',#1058);
#928=PLANE('',#1059);
#929=PLANE('',#1060);
#930=PLANE('',#1079);
#931=PLANE('',#1080);
#932=PLANE('',#1081);
#933=PLANE('',#1086);
#934=PLANE('',#1087);
#935=PLANE('',#1103);
#936=PLANE('',#1107);
#937=PLANE('',#1111);
#938=PLANE('',#1113);
#939=PLANE('',#1114);
#940=PLANE('',#1115);
#941=PLANE('',#1116);
#942=PLANE('',#1117);
#943=PLANE('',#1118);
#944=PLANE('',#1119);
#945=PLANE('',#1120);
#946=PLANE('',#1121);
#947=PLANE('',#1122);
#948=PLANE('',#1123);
#949=PLANE('',#1124);
#950=PLANE('',#1125);
#951=PLANE('',#1127);
#952=PLANE('',#1131);
#953=PLANE('',#1132);
#954=PLANE('',#1135);
#955=PLANE('',#1138);
#956=PLANE('',#1143);
#957=ADVANCED_FACE('',(#127),#925,.F.);
#958=ADVANCED_FACE('',(#128),#926,.F.);
#959=ADVANCED_FACE('',(#129),#927,.F.);
#960=ADVANCED_FACE('',(#130),#928,.T.);
#961=ADVANCED_FACE('',(#131),#929,.T.);
#962=ADVANCED_FACE('',(#132),#930,.F.);
#963=ADVANCED_FACE('',(#133),#931,.F.);
#964=ADVANCED_FACE('',(#134),#932,.F.);
#965=ADVANCED_FACE('',(#135),#71,.T.);
#966=ADVANCED_FACE('',(#136),#933,.T.);
#967=ADVANCED_FACE('',(#137),#934,.T.);
#968=ADVANCED_FACE('',(#138),#72,.F.);
#969=ADVANCED_FACE('',(#139),#73,.T.);
#970=ADVANCED_FACE('',(#140),#935,.T.);
#971=ADVANCED_FACE('',(#141),#74,.F.);
#972=ADVANCED_FACE('',(#142),#75,.T.);
#973=ADVANCED_FACE('',(#143),#936,.T.);
#974=ADVANCED_FACE('',(#144),#76,.F.);
#975=ADVANCED_FACE('',(#145),#77,.T.);
#976=ADVANCED_FACE('',(#146),#937,.T.);
#977=ADVANCED_FACE('',(#147),#78,.F.);
#978=ADVANCED_FACE('',(#148),#938,.T.);
#979=ADVANCED_FACE('',(#149),#939,.T.);
#980=ADVANCED_FACE('',(#150),#940,.T.);
#981=ADVANCED_FACE('',(#151),#941,.T.);
#982=ADVANCED_FACE('',(#152),#942,.F.);
#983=ADVANCED_FACE('',(#153),#943,.T.);
#984=ADVANCED_FACE('',(#154),#944,.T.);
#985=ADVANCED_FACE('',(#155),#945,.T.);
#986=ADVANCED_FACE('',(#156),#946,.T.);
#987=ADVANCED_FACE('',(#157),#947,.F.);
#988=ADVANCED_FACE('',(#158),#948,.F.);
#989=ADVANCED_FACE('',(#159),#949,.T.);
#990=ADVANCED_FACE('',(#160),#950,.T.);
#991=ADVANCED_FACE('',(#161),#79,.F.);
#992=ADVANCED_FACE('',(#162),#951,.T.);
#993=ADVANCED_FACE('',(#163),#80,.F.);
#994=ADVANCED_FACE('',(#164),#81,.F.);
#995=ADVANCED_FACE('',(#165),#82,.F.);
#996=ADVANCED_FACE('',(#166),#952,.T.);
#997=ADVANCED_FACE('',(#167),#953,.T.);
#998=ADVANCED_FACE('',(#168),#83,.T.);
#999=ADVANCED_FACE('',(#169),#954,.T.);
#1000=ADVANCED_FACE('',(#170),#84,.T.);
#1001=ADVANCED_FACE('',(#171),#955,.T.);
#1002=ADVANCED_FACE('',(#172),#85,.T.);
#1003=ADVANCED_FACE('',(#173),#86,.T.);
#1004=ADVANCED_FACE('',(#174),#956,.F.);
#1005=CLOSED_SHELL('',(#957,#958,#959,#960,#961,#962,#963,#964,#965,#966,
#967,#968,#969,#970,#971,#972,#973,#974,#975,#976,#977,#978,#979,#980,#981,
#982,#983,#984,#985,#986,#987,#988,#989,#990,#991,#992,#993,#994,#995,#996,
#997,#998,#999,#1000,#1001,#1002,#1003,#1004));
#1006=DERIVED_UNIT_ELEMENT(#1014,1.);
#1007=DERIVED_UNIT_ELEMENT(#1780,-3.);
#1008=DERIVED_UNIT_ELEMENT(#1014,1.);
#1009=DERIVED_UNIT_ELEMENT(#1780,-3.);
#1010=DERIVED_UNIT_ELEMENT(#1014,1.);
#1011=DERIVED_UNIT_ELEMENT(#1780,-3.);
#1012=DERIVED_UNIT_ELEMENT(#1014,1.);
#1013=DERIVED_UNIT_ELEMENT(#1780,-3.);
#1014=(
MASS_UNIT()
NAMED_UNIT(*)
SI_UNIT(.KILO.,.GRAM.)
);
#1015=DERIVED_UNIT((#1006,#1007));
#1016=DERIVED_UNIT((#1008,#1009));
#1017=DERIVED_UNIT((#1010,#1011));
#1018=DERIVED_UNIT((#1012,#1013));
#1019=MEASURE_REPRESENTATION_ITEM('density measure',
POSITIVE_RATIO_MEASURE(7850.),#1015);
#1020=MEASURE_REPRESENTATION_ITEM('density measure',
POSITIVE_RATIO_MEASURE(7850.),#1016);
#1021=MEASURE_REPRESENTATION_ITEM('density measure',
POSITIVE_RATIO_MEASURE(7850.),#1017);
#1022=MEASURE_REPRESENTATION_ITEM('density measure',
POSITIVE_RATIO_MEASURE(7850.),#1018);
#1023=PROPERTY_DEFINITION_REPRESENTATION(#1043,#1031);
#1024=PROPERTY_DEFINITION_REPRESENTATION(#1044,#1032);
#1025=PROPERTY_DEFINITION_REPRESENTATION(#1045,#1033);
#1026=PROPERTY_DEFINITION_REPRESENTATION(#1046,#1034);
#1027=PROPERTY_DEFINITION_REPRESENTATION(#1047,#1035);
#1028=PROPERTY_DEFINITION_REPRESENTATION(#1048,#1036);
#1029=PROPERTY_DEFINITION_REPRESENTATION(#1049,#1037);
#1030=PROPERTY_DEFINITION_REPRESENTATION(#1050,#1038);
#1031=REPRESENTATION('material name',(#1039),#1774);
#1032=REPRESENTATION('density',(#1019),#1774);
#1033=REPRESENTATION('material name',(#1040),#1775);
#1034=REPRESENTATION('density',(#1020),#1775);
#1035=REPRESENTATION('material name',(#1041),#1776);
#1036=REPRESENTATION('density',(#1021),#1776);
#1037=REPRESENTATION('material name',(#1042),#1777);
#1038=REPRESENTATION('density',(#1022),#1777);
#1039=DESCRIPTIVE_REPRESENTATION_ITEM('\X2\94A2\X0\','\X2\94A2\X0\');
#1040=DESCRIPTIVE_REPRESENTATION_ITEM('\X2\94A2\X0\','\X2\94A2\X0\');
#1041=DESCRIPTIVE_REPRESENTATION_ITEM('\X2\94A2\X0\','\X2\94A2\X0\');
#1042=DESCRIPTIVE_REPRESENTATION_ITEM('\X2\94A2\X0\','\X2\94A2\X0\');
#1043=PROPERTY_DEFINITION('material property','material name',#1814);
#1044=PROPERTY_DEFINITION('material property','density of part',#1814);
#1045=PROPERTY_DEFINITION('material property','material name',#1815);
#1046=PROPERTY_DEFINITION('material property','density of part',#1815);
#1047=PROPERTY_DEFINITION('material property','material name',#1816);
#1048=PROPERTY_DEFINITION('material property','density of part',#1816);
#1049=PROPERTY_DEFINITION('material property','material name',#1817);
#1050=PROPERTY_DEFINITION('material property','density of part',#1817);
#1051=AXIS2_PLACEMENT_3D('',#1470,#1158,#1159);
#1052=AXIS2_PLACEMENT_3D('',#1471,#1160,#1161);
#1053=AXIS2_PLACEMENT_3D('',#1472,#1162,#1163);
#1054=AXIS2_PLACEMENT_3D('',#1473,#1164,#1165);
#1055=AXIS2_PLACEMENT_3D('',#1474,#1166,#1167);
#1056=AXIS2_PLACEMENT_3D('',#1475,#1168,#1169);
#1057=AXIS2_PLACEMENT_3D('',#1484,#1174,#1175);
#1058=AXIS2_PLACEMENT_3D('',#1490,#1179,#1180);
#1059=AXIS2_PLACEMENT_3D('',#1494,#1183,#1184);
#1060=AXIS2_PLACEMENT_3D('',#1506,#1191,#1192);
#1061=AXIS2_PLACEMENT_3D('',#1512,#1195,#1196);
#1062=AXIS2_PLACEMENT_3D('',#1516,#1198,#1199);
#1063=AXIS2_PLACEMENT_3D('',#1520,#1201,#1202);
#1064=AXIS2_PLACEMENT_3D('',#1524,#1204,#1205);
#1065=AXIS2_PLACEMENT_3D('',#1536,#1211,#1212);
#1066=AXIS2_PLACEMENT_3D('',#1538,#1213,#1214);
#1067=AXIS2_PLACEMENT_3D('',#1540,#1215,#1216);
#1068=AXIS2_PLACEMENT_3D('',#1544,#1218,#1219);
#1069=AXIS2_PLACEMENT_3D('',#1546,#1220,#1221);
#1070=AXIS2_PLACEMENT_3D('',#1548,#1222,#1223);
#1071=AXIS2_PLACEMENT_3D('',#1552,#1225,#1226);
#1072=AXIS2_PLACEMENT_3D('',#1554,#1227,#1228);
#1073=AXIS2_PLACEMENT_3D('',#1556,#1229,#1230);
#1074=AXIS2_PLACEMENT_3D('',#1558,#1231,#1232);
#1075=AXIS2_PLACEMENT_3D('',#1562,#1234,#1235);
#1076=AXIS2_PLACEMENT_3D('',#1564,#1236,#1237);
#1077=AXIS2_PLACEMENT_3D('',#1566,#1238,#1239);
#1078=AXIS2_PLACEMENT_3D('',#1567,#1240,#1241);
#1079=AXIS2_PLACEMENT_3D('',#1568,#1242,#1243);
#1080=AXIS2_PLACEMENT_3D('',#1577,#1248,#1249);
#1081=AXIS2_PLACEMENT_3D('',#1580,#1252,#1253);
#1082=AXIS2_PLACEMENT_3D('',#1582,#1255,#1256);
#1083=AXIS2_PLACEMENT_3D('',#1584,#1257,#1258);
#1084=AXIS2_PLACEMENT_3D('',#1588,#1260,#1261);
#1085=AXIS2_PLACEMENT_3D('',#1592,#1264,#1265);
#1086=AXIS2_PLACEMENT_3D('',#1593,#1266,#1267);
#1087=AXIS2_PLACEMENT_3D('',#1594,#1268,#1269);
#1088=AXIS2_PLACEMENT_3D('',#1596,#1270,#1271);
#1089=AXIS2_PLACEMENT_3D('',#1605,#1276,#1277);
#1090=AXIS2_PLACEMENT_3D('',#1607,#1278,#1279);
#1091=AXIS2_PLACEMENT_3D('',#1609,#1280,#1281);
#1092=AXIS2_PLACEMENT_3D('',#1613,#1283,#1284);
#1093=AXIS2_PLACEMENT_3D('',#1615,#1285,#1286);
#1094=AXIS2_PLACEMENT_3D('',#1617,#1287,#1288);
#1095=AXIS2_PLACEMENT_3D('',#1621,#1290,#1291);
#1096=AXIS2_PLACEMENT_3D('',#1623,#1292,#1293);
#1097=AXIS2_PLACEMENT_3D('',#1625,#1294,#1295);
#1098=AXIS2_PLACEMENT_3D('',#1627,#1296,#1297);
#1099=AXIS2_PLACEMENT_3D('',#1630,#1299,#1300);
#1100=AXIS2_PLACEMENT_3D('',#1631,#1301,#1302);
#1101=AXIS2_PLACEMENT_3D('',#1633,#1304,#1305);
#1102=AXIS2_PLACEMENT_3D('',#1635,#1306,#1307);
#1103=AXIS2_PLACEMENT_3D('',#1639,#1311,#1312);
#1104=AXIS2_PLACEMENT_3D('',#1640,#1313,#1314);
#1105=AXIS2_PLACEMENT_3D('',#1642,#1316,#1317);
#1106=AXIS2_PLACEMENT_3D('',#1644,#1318,#1319);
#1107=AXIS2_PLACEMENT_3D('',#1648,#1323,#1324);
#1108=AXIS2_PLACEMENT_3D('',#1649,#1325,#1326);
#1109=AXIS2_PLACEMENT_3D('',#1651,#1328,#1329);
#1110=AXIS2_PLACEMENT_3D('',#1653,#1330,#1331);
#1111=AXIS2_PLACEMENT_3D('',#1657,#1335,#1336);
#1112=AXIS2_PLACEMENT_3D('',#1658,#1337,#1338);
#1113=AXIS2_PLACEMENT_3D('',#1660,#1340,#1341);
#1114=AXIS2_PLACEMENT_3D('',#1669,#1346,#1347);
#1115=AXIS2_PLACEMENT_3D('',#1688,#1358,#1359);
#1116=AXIS2_PLACEMENT_3D('',#1694,#1363,#1364);
#1117=AXIS2_PLACEMENT_3D('',#1696,#1366,#1367);
#1118=AXIS2_PLACEMENT_3D('',#1699,#1370,#1371);
#1119=AXIS2_PLACEMENT_3D('',#1701,#1373,#1374);
#1120=AXIS2_PLACEMENT_3D('',#1702,#1375,#1376);
#1121=AXIS2_PLACEMENT_3D('',#1704,#1378,#1379);
#1122=AXIS2_PLACEMENT_3D('',#1706,#1381,#1382);
#1123=AXIS2_PLACEMENT_3D('',#1708,#1384,#1385);
#1124=AXIS2_PLACEMENT_3D('',#1710,#1387,#1388);
#1125=AXIS2_PLACEMENT_3D('',#1716,#1392,#1393);
#1126=AXIS2_PLACEMENT_3D('',#1718,#1395,#1396);
#1127=AXIS2_PLACEMENT_3D('',#1720,#1398,#1399);
#1128=AXIS2_PLACEMENT_3D('',#1721,#1400,#1401);
#1129=AXIS2_PLACEMENT_3D('',#1722,#1402,#1403);
#1130=AXIS2_PLACEMENT_3D('',#1724,#1405,#1406);
#1131=AXIS2_PLACEMENT_3D('',#1725,#1407,#1408);
#1132=AXIS2_PLACEMENT_3D('',#1726,#1409,#1410);
#1133=AXIS2_PLACEMENT_3D('',#1732,#1414,#1415);
#1134=AXIS2_PLACEMENT_3D('',#1734,#1416,#1417);
#1135=AXIS2_PLACEMENT_3D('',#1736,#1419,#1420);
#1136=AXIS2_PLACEMENT_3D('',#1740,#1423,#1424);
#1137=AXIS2_PLACEMENT_3D('',#1742,#1425,#1426);
#1138=AXIS2_PLACEMENT_3D('',#1744,#1428,#1429);
#1139=AXIS2_PLACEMENT_3D('',#1748,#1432,#1433);
#1140=AXIS2_PLACEMENT_3D('',#1749,#1434,#1435);
#1141=AXIS2_PLACEMENT_3D('',#1750,#1436,#1437);
#1142=AXIS2_PLACEMENT_3D('',#1751,#1438,#1439);
#1143=AXIS2_PLACEMENT_3D('',#1752,#1440,#1441);
#1144=AXIS2_PLACEMENT_3D('',#1753,#1442,#1443);
#1145=AXIS2_PLACEMENT_3D('',#1754,#1444,#1445);
#1146=AXIS2_PLACEMENT_3D('',#1755,#1446,#1447);
#1147=AXIS2_PLACEMENT_3D('',#1756,#1448,#1449);
#1148=AXIS2_PLACEMENT_3D('',#1757,#1450,#1451);
#1149=AXIS2_PLACEMENT_3D('',#1758,#1452,#1453);
#1150=AXIS2_PLACEMENT_3D('',#1759,#1454,#1455);
#1151=AXIS2_PLACEMENT_3D('',#1760,#1456,#1457);
#1152=AXIS2_PLACEMENT_3D('',#1761,#1458,#1459);
#1153=AXIS2_PLACEMENT_3D('',#1762,#1460,#1461);
#1154=AXIS2_PLACEMENT_3D('',#1763,#1462,#1463);
#1155=AXIS2_PLACEMENT_3D('',#1764,#1464,#1465);
#1156=AXIS2_PLACEMENT_3D('',#1765,#1466,#1467);
#1157=AXIS2_PLACEMENT_3D('',#1766,#1468,#1469);
#1158=DIRECTION('axis',(0.,0.,1.));
#1159=DIRECTION('refdir',(1.,0.,0.));
#1160=DIRECTION('axis',(0.,0.,1.));
#1161=DIRECTION('refdir',(1.,0.,0.));
#1162=DIRECTION('axis',(0.,0.,1.));
#1163=DIRECTION('refdir',(1.,0.,0.));
#1164=DIRECTION('axis',(0.,0.,1.));
#1165=DIRECTION('refdir',(1.,0.,0.));
#1166=DIRECTION('axis',(0.,0.,1.));
#1167=DIRECTION('refdir',(1.,0.,0.));
#1168=DIRECTION('center_axis',(-1.,0.,0.));
#1169=DIRECTION('ref_axis',(0.,0.,1.));
#1170=DIRECTION('',(0.,-1.22464679914735E-16,1.));
#1171=DIRECTION('',(0.,1.,0.));
#1172=DIRECTION('',(0.,0.,1.));
#1173=DIRECTION('',(0.,1.,1.22464679914735E-16));
#1174=DIRECTION('center_axis',(0.,0.,-1.));
#1175=DIRECTION('ref_axis',(-1.,0.,0.));
#1176=DIRECTION('',(-1.,0.,0.));
#1177=DIRECTION('',(0.,-1.,0.));
#1178=DIRECTION('',(-1.,0.,0.));
#1179=DIRECTION('center_axis',(0.,1.,0.));
#1180=DIRECTION('ref_axis',(0.,0.,1.));
#1181=DIRECTION('',(0.,0.,-1.));
#1182=DIRECTION('',(1.,0.,0.));
#1183=DIRECTION('center_axis',(0.,-1.,-1.22464679914735E-16));
#1184=DIRECTION('ref_axis',(1.,0.,0.));
#1185=DIRECTION('',(1.,0.,0.));
#1186=DIRECTION('',(0.,-1.22464679914735E-16,1.));
#1187=DIRECTION('',(1.,0.,0.));
#1188=DIRECTION('',(0.,-1.22464679914735E-16,1.));
#1189=DIRECTION('',(1.,0.,0.));
#1190=DIRECTION('',(0.,-1.22464679914735E-16,1.));
#1191=DIRECTION('center_axis',(0.,-1.22464679914735E-16,1.));
#1192=DIRECTION('ref_axis',(1.,0.,0.));
#1193=DIRECTION('',(0.,1.,1.22464679914735E-16));
#1194=DIRECTION('',(-1.,0.,0.));
#1195=DIRECTION('center_axis',(0.,-1.22464679914735E-16,1.));
#1196=DIRECTION('ref_axis',(-4.38287613699104E-13,1.,1.22464679914735E-16));
#1197=DIRECTION('',(0.,-1.,-1.22464679914735E-16));
#1198=DIRECTION('center_axis',(0.,-1.22464679914735E-16,1.));
#1199=DIRECTION('ref_axis',(-1.,-1.57872140945198E-14,-1.93337612083077E-30));
#1200=DIRECTION('',(0.999999999999949,3.20546000780137E-7,3.9255563383488E-23));
#1201=DIRECTION('center_axis',(0.,-1.22464679914735E-16,1.));
#1202=DIRECTION('ref_axis',(3.99365780507929E-6,-0.999999999992025,-1.22464679913759E-16));
#1203=DIRECTION('',(-5.33167268770531E-7,0.999999999999858,1.22464679914718E-16));
#1204=DIRECTION('center_axis',(0.,-1.22464679914735E-16,1.));
#1205=DIRECTION('ref_axis',(0.999999999968101,7.98734763940886E-6,9.78167972027922E-22));
#1206=DIRECTION('',(-1.,0.,0.));
#1207=DIRECTION('',(0.,-1.,-1.22464679914735E-16));
#1208=DIRECTION('',(1.,0.,0.));
#1209=DIRECTION('',(0.,-1.,-1.22464679914735E-16));
#1210=DIRECTION('',(1.,0.,0.));
#1211=DIRECTION('center_axis',(0.,1.22464679914735E-16,-1.));
#1212=DIRECTION('ref_axis',(1.,8.88178419700113E-15,1.0877048587575E-30));
#1213=DIRECTION('center_axis',(0.,1.22464679914735E-16,-1.));
#1214=DIRECTION('ref_axis',(1.,0.,0.));
#1215=DIRECTION('center_axis',(0.,1.22464679914735E-16,-1.));
#1216=DIRECTION('ref_axis',(1.,8.88178419700113E-15,1.0877048587575E-30));
#1217=DIRECTION('',(2.13327570046952E-14,-1.,-1.22464679914735E-16));
#1218=DIRECTION('center_axis',(0.,1.22464679914735E-16,-1.));
#1219=DIRECTION('ref_axis',(4.4408920985006E-15,-1.,-1.22464679914735E-16));
#1220=DIRECTION('center_axis',(0.,1.22464679914735E-16,-1.));
#1221=DIRECTION('ref_axis',(1.,0.,0.));
#1222=DIRECTION('center_axis',(0.,1.22464679914735E-16,-1.));
#1223=DIRECTION('ref_axis',(4.4408920985006E-15,-1.,-1.22464679914735E-16));
#1224=DIRECTION('',(-1.,1.6666723789732E-16,2.04108499413683E-32));
#1225=DIRECTION('center_axis',(0.,1.22464679914735E-16,-1.));
#1226=DIRECTION('ref_axis',(-1.,3.46944695195362E-16,4.24884710452154E-32));
#1227=DIRECTION('center_axis',(0.,1.22464679914735E-16,-1.));
#1228=DIRECTION('ref_axis',(1.,0.,0.));
#1229=DIRECTION('center_axis',(0.,1.22464679914735E-16,-1.));
#1230=DIRECTION('ref_axis',(1.,0.,0.));
#1231=DIRECTION('center_axis',(0.,1.22464679914735E-16,-1.));
#1232=DIRECTION('ref_axis',(-1.,3.46944695195362E-16,4.24884710452154E-32));
#1233=DIRECTION('',(-5.00001683234953E-16,1.,1.22464679914735E-16));
#1234=DIRECTION('center_axis',(0.,1.22464679914735E-16,-1.));
#1235=DIRECTION('ref_axis',(-3.12250225675824E-15,1.,1.22464679914735E-16));
#1236=DIRECTION('center_axis',(0.,1.22464679914735E-16,-1.));
#1237=DIRECTION('ref_axis',(1.,0.,0.));
#1238=DIRECTION('center_axis',(0.,1.22464679914735E-16,-1.));
#1239=DIRECTION('ref_axis',(1.,0.,0.));
#1240=DIRECTION('center_axis',(0.,1.22464679914735E-16,-1.));
#1241=DIRECTION('ref_axis',(-3.12250225675824E-15,1.,1.22464679914735E-16));
#1242=DIRECTION('center_axis',(0.,0.,-1.));
#1243=DIRECTION('ref_axis',(-1.,0.,0.));
#1244=DIRECTION('',(-1.,0.,0.));
#1245=DIRECTION('',(0.,1.,0.));
#1246=DIRECTION('',(-1.,0.,0.));
#1247=DIRECTION('',(0.,1.,0.));
#1248=DIRECTION('center_axis',(1.,0.,0.));
#1249=DIRECTION('ref_axis',(0.,0.,-1.));
#1250=DIRECTION('',(0.,1.22464679914735E-16,-1.));
#1251=DIRECTION('',(0.,0.,-1.));
#1252=DIRECTION('center_axis',(0.,1.,0.));
#1253=DIRECTION('ref_axis',(0.,0.,1.));
#1254=DIRECTION('',(0.,0.,1.));
#1255=DIRECTION('center_axis',(0.,0.,1.));
#1256=DIRECTION('ref_axis',(1.,0.,0.));
#1257=DIRECTION('center_axis',(0.,-1.22464679914735E-16,1.));
#1258=DIRECTION('ref_axis',(1.,0.,0.));
#1259=DIRECTION('',(0.,0.,-1.));
#1260=DIRECTION('center_axis',(0.,1.22464679914735E-16,-1.));
#1261=DIRECTION('ref_axis',(1.,0.,0.));
#1262=DIRECTION('',(0.,0.,-1.));
#1263=DIRECTION('',(0.,0.,1.));
#1264=DIRECTION('center_axis',(0.,1.22464679914735E-16,-1.));
#1265=DIRECTION('ref_axis',(1.,0.,0.));
#1266=DIRECTION('center_axis',(0.,-1.22464679914735E-16,1.));
#1267=DIRECTION('ref_axis',(1.,0.,0.));
#1268=DIRECTION('center_axis',(0.,-1.22464679914735E-16,1.));
#1269=DIRECTION('ref_axis',(1.,0.,0.));
#1270=DIRECTION('center_axis',(0.,1.22464679914735E-16,-1.));
#1271=DIRECTION('ref_axis',(1.,8.88178419700113E-15,1.0877048587575E-30));
#1272=DIRECTION('',(1.,0.,0.));
#1273=DIRECTION('',(0.,-1.,-1.22464679914735E-16));
#1274=DIRECTION('',(-1.,0.,0.));
#1275=DIRECTION('',(0.,1.,1.22464679914735E-16));
#1276=DIRECTION('center_axis',(0.,1.22464679914735E-16,-1.));
#1277=DIRECTION('ref_axis',(-3.12250225675824E-15,1.,1.22464679914735E-16));
#1278=DIRECTION('center_axis',(0.,1.22464679914735E-16,-1.));
#1279=DIRECTION('ref_axis',(1.,0.,0.));
#1280=DIRECTION('center_axis',(0.,1.22464679914735E-16,-1.));
#1281=DIRECTION('ref_axis',(-3.12250225675824E-15,1.,1.22464679914735E-16));
#1282=DIRECTION('',(-5.00001683234953E-16,1.,1.22464679914735E-16));
#1283=DIRECTION('center_axis',(0.,1.22464679914735E-16,-1.));
#1284=DIRECTION('ref_axis',(-1.,3.46944695195362E-16,4.24884710452154E-32));
#1285=DIRECTION('center_axis',(0.,1.22464679914735E-16,-1.));
#1286=DIRECTION('ref_axis',(1.,0.,0.));
#1287=DIRECTION('center_axis',(0.,1.22464679914735E-16,-1.));
#1288=DIRECTION('ref_axis',(-1.,3.46944695195362E-16,4.24884710452154E-32));
#1289=DIRECTION('',(-1.,1.6666723789732E-16,2.04108499413683E-32));
#1290=DIRECTION('center_axis',(0.,1.22464679914735E-16,-1.));
#1291=DIRECTION('ref_axis',(4.4408920985006E-15,-1.,-1.22464679914735E-16));
#1292=DIRECTION('center_axis',(0.,1.22464679914735E-16,-1.));
#1293=DIRECTION('ref_axis',(1.,0.,0.));
#1294=DIRECTION('center_axis',(0.,1.22464679914735E-16,-1.));
#1295=DIRECTION('ref_axis',(1.,0.,0.));
#1296=DIRECTION('center_axis',(0.,1.22464679914735E-16,-1.));
#1297=DIRECTION('ref_axis',(4.4408920985006E-15,-1.,-1.22464679914735E-16));
#1298=DIRECTION('',(2.13327570046952E-14,-1.,-1.22464679914735E-16));
#1299=DIRECTION('center_axis',(0.,1.22464679914735E-16,-1.));
#1300=DIRECTION('ref_axis',(1.,8.88178419700113E-15,1.0877048587575E-30));
#1301=DIRECTION('center_axis',(0.,-1.22464679914735E-16,1.));
#1302=DIRECTION('ref_axis',(1.,8.88178419700113E-15,1.0877048587575E-30));
#1303=DIRECTION('',(0.,-1.22464679914735E-16,1.));
#1304=DIRECTION('center_axis',(0.,0.,1.));
#1305=DIRECTION('ref_axis',(1.,0.,0.));
#1306=DIRECTION('center_axis',(0.,-1.22464679914735E-16,1.));
#1307=DIRECTION('ref_axis',(1.,0.,0.));
#1308=DIRECTION('',(0.,0.,-1.));
#1309=DIRECTION('',(0.,0.,-1.));
#1310=DIRECTION('',(0.,0.,1.));
#1311=DIRECTION('center_axis',(0.,-1.22464679914735E-16,1.));
#1312=DIRECTION('ref_axis',(1.,0.,0.));
#1313=DIRECTION('center_axis',(0.,-1.22464679914735E-16,1.));
#1314=DIRECTION('ref_axis',(4.4408920985006E-15,-1.,-1.22464679914735E-16));
#1315=DIRECTION('',(0.,-1.22464679914735E-16,1.));
#1316=DIRECTION('center_axis',(0.,0.,1.));
#1317=DIRECTION('ref_axis',(1.,0.,0.));
#1318=DIRECTION('center_axis',(0.,-1.22464679914735E-16,1.));
#1319=DIRECTION('ref_axis',(1.,0.,0.));
#1320=DIRECTION('',(0.,0.,-1.));
#1321=DIRECTION('',(0.,0.,1.));
#1322=DIRECTION('',(0.,0.,-1.));
#1323=DIRECTION('center_axis',(0.,-1.22464679914735E-16,1.));
#1324=DIRECTION('ref_axis',(1.,0.,0.));
#1325=DIRECTION('center_axis',(0.,-1.22464679914735E-16,1.));
#1326=DIRECTION('ref_axis',(-3.12250225675824E-15,1.,1.22464679914735E-16));
#1327=DIRECTION('',(0.,-1.22464679914735E-16,1.));
#1328=DIRECTION('center_axis',(0.,0.,1.));
#1329=DIRECTION('ref_axis',(1.,0.,0.));
#1330=DIRECTION('center_axis',(0.,-1.22464679914735E-16,1.));
#1331=DIRECTION('ref_axis',(1.,0.,0.));
#1332=DIRECTION('',(0.,0.,-1.));
#1333=DIRECTION('',(0.,0.,1.));
#1334=DIRECTION('',(0.,0.,-1.));
#1335=DIRECTION('center_axis',(0.,-1.22464679914735E-16,1.));
#1336=DIRECTION('ref_axis',(1.,0.,0.));
#1337=DIRECTION('center_axis',(0.,-1.22464679914735E-16,1.));
#1338=DIRECTION('ref_axis',(-1.,3.46944695195362E-16,4.24884710452154E-32));
#1339=DIRECTION('',(0.,-1.22464679914735E-16,1.));
#1340=DIRECTION('center_axis',(1.,0.,0.));
#1341=DIRECTION('ref_axis',(0.,1.,0.));
#1342=DIRECTION('',(0.,-1.22464679914735E-16,1.));
#1343=DIRECTION('',(0.,1.,0.));
#1344=DIRECTION('',(0.,0.,1.));
#1345=DIRECTION('',(0.,1.,0.));
#1346=DIRECTION('center_axis',(0.,0.,1.));
#1347=DIRECTION('ref_axis',(1.,0.,0.));
#1348=DIRECTION('',(1.,0.,0.));
#1349=DIRECTION('',(0.,-1.,0.));
#1350=DIRECTION('',(-1.,0.,0.));
#1351=DIRECTION('',(-1.,0.,0.));
#1352=DIRECTION('',(0.,-1.,0.));
#1353=DIRECTION('',(-1.,0.,0.));
#1354=DIRECTION('',(0.,1.,0.));
#1355=DIRECTION('',(0.,-1.,0.));
#1356=DIRECTION('',(1.,0.,0.));
#1357=DIRECTION('',(0.,1.,0.));
#1358=DIRECTION('center_axis',(-1.,0.,0.));
#1359=DIRECTION('ref_axis',(0.,-1.,0.));
#1360=DIRECTION('',(0.,1.22464679914735E-16,-1.));
#1361=DIRECTION('',(0.,0.,1.));
#1362=DIRECTION('',(0.,-1.,0.));
#1363=DIRECTION('center_axis',(-1.,0.,0.));
#1364=DIRECTION('ref_axis',(0.,-1.,0.));
#1365=DIRECTION('',(0.,0.,1.));
#1366=DIRECTION('center_axis',(0.,0.,1.));
#1367=DIRECTION('ref_axis',(-1.,0.,0.));
#1368=DIRECTION('',(1.,0.,0.));
#1369=DIRECTION('',(-1.,0.,0.));
#1370=DIRECTION('center_axis',(0.,-1.,0.));
#1371=DIRECTION('ref_axis',(1.,0.,0.));
#1372=DIRECTION('',(0.,0.,1.));
#1373=DIRECTION('center_axis',(0.,1.,0.));
#1374=DIRECTION('ref_axis',(-1.,0.,0.));
#1375=DIRECTION('center_axis',(1.,0.,0.));
#1376=DIRECTION('ref_axis',(0.,1.,0.));
#1377=DIRECTION('',(0.,1.22464679914735E-16,-1.));
#1378=DIRECTION('center_axis',(0.,-1.,-1.22464679914735E-16));
#1379=DIRECTION('ref_axis',(1.,0.,0.));
#1380=DIRECTION('',(0.,1.22464679914735E-16,-1.));
#1381=DIRECTION('center_axis',(-1.,0.,0.));
#1382=DIRECTION('ref_axis',(0.,0.,-1.));
#1383=DIRECTION('',(0.,1.22464679914735E-16,-1.));
#1384=DIRECTION('center_axis',(1.,0.,0.));
#1385=DIRECTION('ref_axis',(0.,0.,1.));
#1386=DIRECTION('',(0.,-1.22464679914735E-16,1.));
#1387=DIRECTION('center_axis',(0.,1.,1.22464679914735E-16));
#1388=DIRECTION('ref_axis',(-1.,0.,0.));
#1389=DIRECTION('',(0.,-1.22464679914735E-16,1.));
#1390=DIRECTION('',(1.,0.,0.));
#1391=DIRECTION('',(0.,-1.22464679914735E-16,1.));
#1392=DIRECTION('center_axis',(1.6666723789732E-16,1.,1.22464679914735E-16));
#1393=DIRECTION('ref_axis',(-1.,1.6666723789732E-16,2.04108499413683E-32));
#1394=DIRECTION('',(0.,-1.22464679914735E-16,1.));
#1395=DIRECTION('center_axis',(0.,-1.22464679914735E-16,1.));
#1396=DIRECTION('ref_axis',(-1.,3.46944695195362E-16,4.24884710452154E-32));
#1397=DIRECTION('',(0.,-1.22464679914735E-16,1.));
#1398=DIRECTION('center_axis',(1.,5.00001683234953E-16,6.12325460941974E-32));
#1399=DIRECTION('ref_axis',(-5.00001683234953E-16,1.,1.22464679914735E-16));
#1400=DIRECTION('center_axis',(0.,-1.22464679914735E-16,1.));
#1401=DIRECTION('ref_axis',(-3.12250225675824E-15,1.,1.22464679914735E-16));
#1402=DIRECTION('center_axis',(0.,-1.22464679914735E-16,1.));
#1403=DIRECTION('ref_axis',(1.,8.88178419700113E-15,1.0877048587575E-30));
#1404=DIRECTION('',(0.,-1.22464679914735E-16,1.));
#1405=DIRECTION('center_axis',(0.,-1.22464679914735E-16,1.));
#1406=DIRECTION('ref_axis',(4.4408920985006E-15,-1.,-1.22464679914735E-16));
#1407=DIRECTION('center_axis',(-1.,-2.13327570046952E-14,-2.61250925827883E-30));
#1408=DIRECTION('ref_axis',(2.13327570046952E-14,-1.,-1.22464679914735E-16));
#1409=DIRECTION('center_axis',(0.999999999999858,5.33167268770531E-7,6.52941589109967E-23));
#1410=DIRECTION('ref_axis',(-5.33167268770531E-7,0.999999999999858,1.22464679914718E-16));
#1411=DIRECTION('',(-5.33167268770531E-7,0.999999999999858,1.22464679914718E-16));
#1412=DIRECTION('',(0.,-1.22464679914735E-16,1.));
#1413=DIRECTION('',(0.,-1.22464679914735E-16,1.));
#1414=DIRECTION('center_axis',(0.,-1.22464679914735E-16,1.));
#1415=DIRECTION('ref_axis',(3.99365780507929E-6,-0.999999999992025,-1.22464679913759E-16));
#1416=DIRECTION('center_axis',(0.,-1.22464679914735E-16,1.));
#1417=DIRECTION('ref_axis',(3.99365780507929E-6,-0.999999999992025,-1.22464679913759E-16));
#1418=DIRECTION('',(0.,-1.22464679914735E-16,1.));
#1419=DIRECTION('center_axis',(3.20546000780137E-7,-0.999999999999949,-1.22464679914729E-16));
#1420=DIRECTION('ref_axis',(0.999999999999949,3.20546000780137E-7,3.9255563383488E-23));
#1421=DIRECTION('',(0.999999999999949,3.20546000780137E-7,3.9255563383488E-23));
#1422=DIRECTION('',(0.,-1.22464679914735E-16,1.));
#1423=DIRECTION('center_axis',(0.,-1.22464679914735E-16,1.));
#1424=DIRECTION('ref_axis',(-1.,-1.57872140945198E-14,-1.93337612083077E-30));
#1425=DIRECTION('center_axis',(0.,-1.22464679914735E-16,1.));
#1426=DIRECTION('ref_axis',(-1.,-1.57872140945198E-14,-1.93337612083077E-30));
#1427=DIRECTION('',(0.,-1.22464679914735E-16,1.));
#1428=DIRECTION('center_axis',(-1.,0.,0.));
#1429=DIRECTION('ref_axis',(0.,-1.,-1.22464679914735E-16));
#1430=DIRECTION('',(0.,1.,1.22464679914735E-16));
#1431=DIRECTION('',(0.,-1.22464679914735E-16,1.));
#1432=DIRECTION('center_axis',(0.,-1.22464679914735E-16,1.));
#1433=DIRECTION('ref_axis',(-4.38287613699104E-13,1.,1.22464679914735E-16));
#1434=DIRECTION('center_axis',(0.,-1.22464679914735E-16,1.));
#1435=DIRECTION('ref_axis',(-4.38287613699104E-13,1.,1.22464679914735E-16));
#1436=DIRECTION('center_axis',(0.,-1.22464679914735E-16,1.));
#1437=DIRECTION('ref_axis',(0.999999999968101,7.98734763940886E-6,9.78167972027922E-22));
#1438=DIRECTION('center_axis',(0.,-1.22464679914735E-16,1.));
#1439=DIRECTION('ref_axis',(0.999999999968101,7.98734763940886E-6,9.78167972027922E-22));
#1440=DIRECTION('center_axis',(0.,-1.22464679914735E-16,1.));
#1441=DIRECTION('ref_axis',(1.,0.,0.));
#1442=DIRECTION('',(0.,0.,1.));
#1443=DIRECTION('',(1.,0.,0.));
#1444=DIRECTION('',(0.,0.,1.));
#1445=DIRECTION('',(1.,0.,0.));
#1446=DIRECTION('',(0.,0.,1.));
#1447=DIRECTION('',(1.,0.,0.));
#1448=DIRECTION('',(0.,0.,1.));
#1449=DIRECTION('',(1.,0.,0.));
#1450=DIRECTION('',(0.,0.,1.));
#1451=DIRECTION('',(1.,0.,0.));
#1452=DIRECTION('',(0.,0.,1.));
#1453=DIRECTION('',(1.110223024625E-16,1.,0.));
#1454=DIRECTION('',(0.,0.,1.));
#1455=DIRECTION('',(1.110223024625E-16,1.,0.));
#1456=DIRECTION('',(0.,0.,1.));
#1457=DIRECTION('',(-1.,1.224646799147E-16,0.));
#1458=DIRECTION('',(0.,0.,1.));
#1459=DIRECTION('',(-1.,1.224646799147E-16,0.));
#1460=DIRECTION('',(0.,0.,1.));
#1461=DIRECTION('',(-1.,1.224646799147E-16,0.));
#1462=DIRECTION('',(0.,0.,1.));
#1463=DIRECTION('',(-1.,1.224646799147E-16,0.));
#1464=DIRECTION('',(0.,0.,1.));
#1465=DIRECTION('',(-4.440892098501E-16,-1.,0.));
#1466=DIRECTION('',(0.,0.,1.));
#1467=DIRECTION('',(-4.440892098501E-16,-1.,0.));
#1468=DIRECTION('',(0.,0.,1.));
#1469=DIRECTION('',(1.,0.,0.));
#1470=CARTESIAN_POINT('',(0.,0.,0.));
#1471=CARTESIAN_POINT('',(0.,0.,0.));
#1472=CARTESIAN_POINT('',(0.,0.,0.));
#1473=CARTESIAN_POINT('',(0.,0.,0.));
#1474=CARTESIAN_POINT('',(0.,0.,0.));
#1475=CARTESIAN_POINT('Origin',(11.8850165100317,-8.620116637333,6.3));
#1476=CARTESIAN_POINT('',(11.8850165100317,-8.620116637333,6.3));
#1477=CARTESIAN_POINT('',(11.8850165100317,-8.620116637333,8.));
#1478=CARTESIAN_POINT('',(11.8850165100317,-8.620116637333,3.15));
#1479=CARTESIAN_POINT('',(11.8850165100317,-7.62011663733301,6.3));
#1480=CARTESIAN_POINT('',(11.8850165100317,-8.620116637333,6.3));
#1481=CARTESIAN_POINT('',(11.8850165100317,-7.62011663733301,8.));
#1482=CARTESIAN_POINT('',(11.8850165100317,-7.62011663733301,8.));
#1483=CARTESIAN_POINT('',(11.8850165100317,-21.1137729746291,8.));
#1484=CARTESIAN_POINT('Origin',(16.8850165100317,-8.620116637333,6.3));
#1485=CARTESIAN_POINT('',(16.8850165100317,-8.620116637333,6.3));
#1486=CARTESIAN_POINT('',(11.3613550927095,-8.620116637333,6.3));
#1487=CARTESIAN_POINT('',(16.8850165100317,-7.62011663733301,6.3));
#1488=CARTESIAN_POINT('',(16.8850165100317,-7.620116637333,6.3));
#1489=CARTESIAN_POINT('',(11.8850165100317,-7.62011663733301,6.3));
#1490=CARTESIAN_POINT('Origin',(11.3613550927095,-7.62011663733301,5.));
#1491=CARTESIAN_POINT('',(16.8850165100317,-7.62011663733301,8.));
#1492=CARTESIAN_POINT('',(16.8850165100317,-7.62011663733301,6.5));
#1493=CARTESIAN_POINT('',(27.9931807213615,-7.62011663733301,8.));
#1494=CARTESIAN_POINT('Origin',(5.83769367538732,-8.620116637333,-5.09890917954169E-17));
#1495=CARTESIAN_POINT('',(5.83769367538732,-8.620116637333,8.));
#1496=CARTESIAN_POINT('',(5.00501651003168,-8.620116637333,8.));
#1497=CARTESIAN_POINT('',(5.83769367538732,-8.620116637333,2.));
#1498=CARTESIAN_POINT('',(5.83769367538732,-8.620116637333,-5.09890917954169E-17));
#1499=CARTESIAN_POINT('',(16.879648358697,-8.620116637333,2.));
#1500=CARTESIAN_POINT('',(25.2313500127004,-8.620116637333,2.));
#1501=CARTESIAN_POINT('',(16.879648358697,-8.620116637333,3.));
#1502=CARTESIAN_POINT('',(16.879648358697,-8.620116637333,0.999999999999998));
#1503=CARTESIAN_POINT('',(16.8850165100317,-8.620116637333,3.));
#1504=CARTESIAN_POINT('',(13.6739780589268,-8.620116637333,3.));
#1505=CARTESIAN_POINT('',(16.8850165100317,-8.620116637333,4.));
#1506=CARTESIAN_POINT('Origin',(44.6250063500135,-33.6074293119252,8.));
#1507=CARTESIAN_POINT('',(16.8850165100317,-6.620116637333,8.));
#1508=CARTESIAN_POINT('',(16.8850165100317,-20.1137729746291,8.));
#1509=CARTESIAN_POINT('',(5.00501651003168,-6.620116637333,8.));
#1510=CARTESIAN_POINT('',(5.00501651003168,-6.620116637333,8.));
#1511=CARTESIAN_POINT('',(1.83769367538732,-9.787452121303,8.));
#1512=CARTESIAN_POINT('Origin',(5.00501651003306,-9.787439472003,8.));
#1513=CARTESIAN_POINT('',(1.83769367538732,-57.4274064519294,7.99999999999999));
#1514=CARTESIAN_POINT('',(1.83769367538732,-57.4274064519294,7.99999999999999));
#1515=CARTESIAN_POINT('',(5.00502921005841,-60.5947419866004,7.99999999999999));
#1516=CARTESIAN_POINT('Origin',(5.00502921005847,-57.4274064519294,7.99999999999999));
#1517=CARTESIAN_POINT('',(84.244983439247,-60.59471658655,7.99999999999999));
#1518=CARTESIAN_POINT('',(5.00502921005841,-60.5947419866004,7.99999999999999));
#1519=CARTESIAN_POINT('',(87.4123190246388,-57.4273557025474,7.99999999999999));
#1520=CARTESIAN_POINT('Origin',(84.244970789942,-57.4273683518532,7.99999999999999));
#1521=CARTESIAN_POINT('',(87.412293624588,-9.787426873413,8.));
#1522=CARTESIAN_POINT('',(87.4123190246388,-57.4273557025474,7.99999999999999));
#1523=CARTESIAN_POINT('',(84.244932791305,-6.620116637333,8.));
#1524=CARTESIAN_POINT('Origin',(84.244958089916,-9.78745217202301,8.));
#1525=CARTESIAN_POINT('',(26.1390165100317,-6.620116637333,8.));
#1526=CARTESIAN_POINT('',(5.00501651003168,-6.620116637333,8.));
#1527=CARTESIAN_POINT('',(26.1390165100317,-7.62011663733301,8.));
#1528=CARTESIAN_POINT('',(26.1390165100317,-20.1137729746291,8.));
#1529=CARTESIAN_POINT('',(31.1390165100317,-7.62011663733301,8.));
#1530=CARTESIAN_POINT('',(49.7003370586744,-7.62011663733301,8.));
#1531=CARTESIAN_POINT('',(31.1390165100317,-8.620116637333,8.));
#1532=CARTESIAN_POINT('',(31.1390165100317,-21.1137729746291,8.));
#1533=CARTESIAN_POINT('',(83.4123190246387,-8.62011663733299,8.));
#1534=CARTESIAN_POINT('',(5.00501651003168,-8.620116637333,8.));
#1535=CARTESIAN_POINT('',(84.101707110386,-8.74268646094032,8.));
#1536=CARTESIAN_POINT('Origin',(83.4123190246387,-10.620116637333,8.));
#1537=CARTESIAN_POINT('',(85.2882169680845,-9.92657002334361,8.));
#1538=CARTESIAN_POINT('Origin',(84.248158496317,-9.782422961963,8.));
#1539=CARTESIAN_POINT('',(85.4123190246388,-10.620116637333,8.));
#1540=CARTESIAN_POINT('Origin',(83.4123190246387,-10.620116637333,8.));
#1541=CARTESIAN_POINT('',(85.4123190246387,-56.5947419866004,7.99999999999999));
#1542=CARTESIAN_POINT('',(85.4123190246388,-10.620116637333,8.));
#1543=CARTESIAN_POINT('',(85.2906046219809,-57.2817959981722,8.));
#1544=CARTESIAN_POINT('Origin',(83.4123190246387,-56.5947419866004,7.99999999999999));
#1545=CARTESIAN_POINT('',(84.1516462949931,-58.4530732776544,8.));
#1546=CARTESIAN_POINT('Origin',(84.248158496317,-57.407518212153,8.));
#1547=CARTESIAN_POINT('',(83.4123190246387,-58.5947419866004,7.99999999999999));
#1548=CARTESIAN_POINT('Origin',(83.4123190246387,-56.5947419866004,7.99999999999999));
#1549=CARTESIAN_POINT('',(5.83769367538732,-58.5947419866004,7.99999999999999));
#1550=CARTESIAN_POINT('',(84.244983439247,-58.5947419866004,7.99999999999999));
#1551=CARTESIAN_POINT('',(5.0980150705883,-58.4529334626337,7.99999999999999));
#1552=CARTESIAN_POINT('Origin',(5.83769367538732,-56.5947419866004,7.99999999999999));
#1553=CARTESIAN_POINT('',(3.95,-57.407518212153,8.));
#1554=CARTESIAN_POINT('Origin',(5.,-57.407518212153,8.));
#1555=CARTESIAN_POINT('',(3.95802002243629,-57.2779893491287,7.99999999999999));
#1556=CARTESIAN_POINT('Origin',(5.,-57.407518212153,8.));
#1557=CARTESIAN_POINT('',(3.83769367538733,-56.5947419866004,7.99999999999999));
#1558=CARTESIAN_POINT('Origin',(5.83769367538732,-56.5947419866004,7.99999999999999));
#1559=CARTESIAN_POINT('',(3.83769367538731,-10.620116637333,8.));
#1560=CARTESIAN_POINT('',(3.83769367538733,-56.5947419866004,7.99999999999999));
#1561=CARTESIAN_POINT('',(3.9604529205921,-9.9302129132266,8.));
#1562=CARTESIAN_POINT('Origin',(5.83769367538732,-10.620116637333,8.));
#1563=CARTESIAN_POINT('',(3.95,-9.782422961963,8.));
#1564=CARTESIAN_POINT('Origin',(5.,-9.782422961963,8.));
#1565=CARTESIAN_POINT('',(5.1477899512421,-8.74287588255204,8.));
#1566=CARTESIAN_POINT('Origin',(5.,-9.782422961963,8.));
#1567=CARTESIAN_POINT('Origin',(5.83769367538732,-10.620116637333,8.));
#1568=CARTESIAN_POINT('Origin',(31.1390165100317,-8.620116637333,6.3));
#1569=CARTESIAN_POINT('',(31.1390165100317,-8.620116637333,6.3));
#1570=CARTESIAN_POINT('',(26.1390165100317,-8.620116637333,6.3));
#1571=CARTESIAN_POINT('',(18.4883550927095,-8.620116637333,6.3));
#1572=CARTESIAN_POINT('',(31.1390165100317,-7.62011663733301,6.3));
#1573=CARTESIAN_POINT('',(31.1390165100317,-8.620116637333,6.3));
#1574=CARTESIAN_POINT('',(26.1390165100317,-7.62011663733301,6.3));
#1575=CARTESIAN_POINT('',(31.1390165100317,-7.62011663733301,6.3));
#1576=CARTESIAN_POINT('',(26.1390165100317,-7.620116637333,6.3));
#1577=CARTESIAN_POINT('Origin',(31.1390165100317,-8.620116637333,8.));
#1578=CARTESIAN_POINT('',(31.1390165100317,-8.620116637333,4.));
#1579=CARTESIAN_POINT('',(31.1390165100317,-7.62011663733301,8.));
#1580=CARTESIAN_POINT('Origin',(54.7756677673352,-7.62011663733301,5.));
#1581=CARTESIAN_POINT('',(26.1390165100317,-7.62011663733301,3.5));
#1582=CARTESIAN_POINT('Origin',(84.248158496317,-9.782422961963,-1.93330563804102E-16));
#1583=CARTESIAN_POINT('',(83.198158496317,-9.782422961963,9.6));
#1584=CARTESIAN_POINT('Origin',(84.248158496317,-9.782422961963,9.6));
#1585=CARTESIAN_POINT('',(83.198158496317,-9.782422961963,2.));
#1586=CARTESIAN_POINT('',(83.198158496317,-9.782422961963,-1.93330563804102E-16));
#1587=CARTESIAN_POINT('',(85.2882169680845,-9.92657002334361,2.));
#1588=CARTESIAN_POINT('Origin',(84.248158496317,-9.782422961963,2.));
#1589=CARTESIAN_POINT('',(85.2882169680845,-9.92657002334361,-1.38491526773711E-16));
#1590=CARTESIAN_POINT('',(84.101707110386,-8.74268646094032,2.));
#1591=CARTESIAN_POINT('',(84.101707110386,-8.74268646094032,-1.38491526773711E-16));
#1592=CARTESIAN_POINT('Origin',(84.248158496317,-9.782422961963,2.));
#1593=CARTESIAN_POINT('Origin',(44.6250063500135,-33.6074293119252,9.6));
#1594=CARTESIAN_POINT('Origin',(44.6250063500135,-33.6074293119252,2.));
#1595=CARTESIAN_POINT('',(83.4123190246387,-8.62011663733299,2.));
#1596=CARTESIAN_POINT('Origin',(83.4123190246387,-10.620116637333,2.));
#1597=CARTESIAN_POINT('',(26.1408765262354,-8.620116637333,2.));
#1598=CARTESIAN_POINT('',(25.2313500127004,-8.620116637333,2.));
#1599=CARTESIAN_POINT('',(26.1408765262354,-8.62297767297637,2.));
#1600=CARTESIAN_POINT('',(26.1408765262354,-21.1152034924508,2.));
#1601=CARTESIAN_POINT('',(16.879648358697,-8.62297767297637,2.));
#1602=CARTESIAN_POINT('',(30.7523273543553,-8.62297767297638,2.));
#1603=CARTESIAN_POINT('',(16.879648358697,-20.1134565659458,2.));
#1604=CARTESIAN_POINT('',(5.1477899512421,-8.74287588255204,2.));
#1605=CARTESIAN_POINT('Origin',(5.83769367538732,-10.620116637333,2.));
#1606=CARTESIAN_POINT('',(3.9604529205921,-9.9302129132266,2.));
#1607=CARTESIAN_POINT('Origin',(5.,-9.782422961963,2.));
#1608=CARTESIAN_POINT('',(3.83769367538731,-10.620116637333,2.));
#1609=CARTESIAN_POINT('Origin',(5.83769367538732,-10.620116637333,2.));
#1610=CARTESIAN_POINT('',(3.83769367538733,-56.5947419866004,1.99999999999999));
#1611=CARTESIAN_POINT('',(3.83769367538733,-45.1010856492628,2.));
#1612=CARTESIAN_POINT('',(3.95802002243629,-57.2779893491287,1.99999999999999));
#1613=CARTESIAN_POINT('Origin',(5.83769367538732,-56.5947419866004,1.99999999999999));
#1614=CARTESIAN_POINT('',(5.0980150705883,-58.4529334626337,1.99999999999999));
#1615=CARTESIAN_POINT('Origin',(5.,-57.407518212153,2.));
#1616=CARTESIAN_POINT('',(5.83769367538732,-58.5947419866004,1.99999999999999));
#1617=CARTESIAN_POINT('Origin',(5.83769367538732,-56.5947419866004,1.99999999999999));
#1618=CARTESIAN_POINT('',(83.4123190246387,-58.5947419866004,1.99999999999999));
#1619=CARTESIAN_POINT('',(64.0186626873262,-58.5947419866004,1.99999999999999));
#1620=CARTESIAN_POINT('',(84.1516462949931,-58.4530732776544,1.99999999999999));
#1621=CARTESIAN_POINT('Origin',(83.4123190246387,-56.5947419866004,1.99999999999999));
#1622=CARTESIAN_POINT('',(83.198158496317,-57.407518212153,1.99999999999999));
#1623=CARTESIAN_POINT('Origin',(84.248158496317,-57.407518212153,2.));
#1624=CARTESIAN_POINT('',(85.2906046219809,-57.2817959981722,1.99999999999999));
#1625=CARTESIAN_POINT('Origin',(84.248158496317,-57.407518212153,2.));
#1626=CARTESIAN_POINT('',(85.4123190246387,-56.5947419866004,1.99999999999999));
#1627=CARTESIAN_POINT('Origin',(83.4123190246387,-56.5947419866004,1.99999999999999));
#1628=CARTESIAN_POINT('',(85.4123190246388,-10.620116637333,2.));
#1629=CARTESIAN_POINT('',(85.412319024639,-22.1137729746287,2.));
#1630=CARTESIAN_POINT('Origin',(83.4123190246387,-10.620116637333,2.));
#1631=CARTESIAN_POINT('Origin',(83.4123190246387,-10.620116637333,-2.9591845162489E-16));
#1632=CARTESIAN_POINT('',(83.4123190246387,-8.62011663733299,-5.09890917954159E-17));
#1633=CARTESIAN_POINT('Origin',(84.248158496317,-57.407518212153,-6.0257226095274E-15));
#1634=CARTESIAN_POINT('',(83.198158496317,-57.407518212153,9.59999999999999));
#1635=CARTESIAN_POINT('Origin',(84.248158496317,-57.407518212153,9.59999999999999));
#1636=CARTESIAN_POINT('',(83.198158496317,-57.407518212153,-6.0257226095274E-15));
#1637=CARTESIAN_POINT('',(84.1516462949931,-58.4530732776544,-6.08204612739567E-15));
#1638=CARTESIAN_POINT('',(85.2906046219809,-57.2817959981722,-6.08204612739567E-15));
#1639=CARTESIAN_POINT('Origin',(44.6250063500135,-33.6074293119252,9.6));
#1640=CARTESIAN_POINT('Origin',(83.4123190246387,-56.5947419866004,-5.9261862292228E-15));
#1641=CARTESIAN_POINT('',(85.4123190246387,-56.5947419866004,-5.9261862292228E-15));
#1642=CARTESIAN_POINT('Origin',(5.,-9.782422961963,-1.93330563804102E-16));
#1643=CARTESIAN_POINT('',(3.95,-9.782422961963,9.6));
#1644=CARTESIAN_POINT('Origin',(5.,-9.782422961963,9.6));
#1645=CARTESIAN_POINT('',(3.95,-9.782422961963,-1.93330563804102E-16));
#1646=CARTESIAN_POINT('',(3.96045292059208,-9.9302129132266,-1.38726188173977E-16));
#1647=CARTESIAN_POINT('',(5.14778995124209,-8.74287588255204,-1.38726188173977E-16));
#1648=CARTESIAN_POINT('Origin',(44.6250063500135,-33.6074293119252,9.6));
#1649=CARTESIAN_POINT('Origin',(5.83769367538732,-10.620116637333,-2.95918451624889E-16));
#1650=CARTESIAN_POINT('',(3.83769367538731,-10.620116637333,-2.95918451624888E-16));
#1651=CARTESIAN_POINT('Origin',(5.,-57.407518212153,-6.0257226095274E-15));
#1652=CARTESIAN_POINT('',(3.95,-57.407518212153,9.59999999999999));
#1653=CARTESIAN_POINT('Origin',(5.,-57.407518212153,9.59999999999999));
#1654=CARTESIAN_POINT('',(3.95,-57.407518212153,-6.0257226095274E-15));
#1655=CARTESIAN_POINT('',(5.0980150705883,-58.4529334626337,-6.08180447616646E-15));
#1656=CARTESIAN_POINT('',(3.95802002243629,-57.2779893491287,-6.08180447616646E-15));
#1657=CARTESIAN_POINT('Origin',(44.6250063500135,-33.6074293119252,9.6));
#1658=CARTESIAN_POINT('Origin',(5.83769367538732,-56.5947419866004,-5.9261862292228E-15));
#1659=CARTESIAN_POINT('',(5.83769367538732,-58.5947419866004,-6.17111558905227E-15));
#1660=CARTESIAN_POINT('Origin',(26.1408765262354,-8.62297767297637,2.));
#1661=CARTESIAN_POINT('',(26.1408765262354,-6.620116637333,2.));
#1662=CARTESIAN_POINT('',(26.1408765262354,-6.620116637333,3.));
#1663=CARTESIAN_POINT('',(26.1408765262354,-6.620116637333,0.999999999999999));
#1664=CARTESIAN_POINT('',(26.1408765262354,-6.61948381996646,2.));
#1665=CARTESIAN_POINT('',(26.1408765262354,-8.62297767297637,2.));
#1666=CARTESIAN_POINT('',(26.1408765262354,-6.61948381996646,3.));
#1667=CARTESIAN_POINT('',(26.1408765262354,-6.61948381996646,2.));
#1668=CARTESIAN_POINT('',(26.1408765262354,-8.62297767297637,3.));
#1669=CARTESIAN_POINT('Origin',(21.5102624424662,-7.62123074647142,3.));
#1670=CARTESIAN_POINT('',(26.1390165100317,-8.620116637333,3.));
#1671=CARTESIAN_POINT('',(26.1408765262354,-8.620116637333,3.));
#1672=CARTESIAN_POINT('',(13.6739780589268,-8.620116637333,3.));
#1673=CARTESIAN_POINT('',(26.1390165100317,-6.620116637333,3.));
#1674=CARTESIAN_POINT('',(26.1390165100317,-7.12067369190221,3.));
#1675=CARTESIAN_POINT('',(52.8775976168856,-6.620116637333,3.));
#1676=CARTESIAN_POINT('',(16.879648358697,-6.61948381996646,3.));
#1677=CARTESIAN_POINT('',(26.1408765262354,-6.61948381996646,3.));
#1678=CARTESIAN_POINT('',(16.879648358697,-6.620116637333,3.));
#1679=CARTESIAN_POINT('',(16.879648358697,-6.61948381996646,3.));
#1680=CARTESIAN_POINT('',(16.8850165100317,-6.620116637333,3.));
#1681=CARTESIAN_POINT('',(52.8775976168856,-6.620116637333,3.));
#1682=CARTESIAN_POINT('',(16.8850165100317,-7.12067369190221,3.));
#1683=CARTESIAN_POINT('',(16.879648358697,-8.62297767297637,3.));
#1684=CARTESIAN_POINT('',(16.879648358697,-6.61948381996646,3.));
#1685=CARTESIAN_POINT('',(26.1408765262354,-8.62297767297637,3.));
#1686=CARTESIAN_POINT('',(16.879648358697,-8.62297767297637,3.));
#1687=CARTESIAN_POINT('',(26.1408765262354,-8.62297767297637,3.));
#1688=CARTESIAN_POINT('Origin',(16.879648358697,-6.61948381996646,2.));
#1689=CARTESIAN_POINT('',(16.879648358697,-6.620116637333,2.));
#1690=CARTESIAN_POINT('',(16.879648358697,-6.620116637333,0.999999999999999));
#1691=CARTESIAN_POINT('',(16.879648358697,-6.61948381996646,2.));
#1692=CARTESIAN_POINT('',(16.879648358697,-6.61948381996646,2.));
#1693=CARTESIAN_POINT('',(16.879648358697,-6.61948381996646,2.));
#1694=CARTESIAN_POINT('Origin',(16.879648358697,-6.61948381996646,2.));
#1695=CARTESIAN_POINT('',(16.879648358697,-8.62297767297637,2.));
#1696=CARTESIAN_POINT('Origin',(21.5102624424662,-7.62123074647142,2.));
#1697=CARTESIAN_POINT('',(52.8775976168856,-6.620116637333,2.));
#1698=CARTESIAN_POINT('',(26.1408765262354,-6.61948381996646,2.));
#1699=CARTESIAN_POINT('Origin',(16.879648358697,-8.62297767297637,2.));
#1700=CARTESIAN_POINT('',(26.1408765262354,-8.62297767297637,2.));
#1701=CARTESIAN_POINT('Origin',(26.1408765262354,-6.61948381996646,2.));
#1702=CARTESIAN_POINT('Origin',(26.1408765262354,-8.62297767297637,2.));
#1703=CARTESIAN_POINT('',(26.1408765262354,-8.620116637333,0.999999999999999));
#1704=CARTESIAN_POINT('Origin',(5.83769367538732,-8.620116637333,-5.09890917954169E-17));
#1705=CARTESIAN_POINT('',(26.1390165100317,-8.620116637333,1.));
#1706=CARTESIAN_POINT('Origin',(16.8850165100317,-6.620116637333,8.));
#1707=CARTESIAN_POINT('',(16.8850165100317,-6.620116637333,4.));
#1708=CARTESIAN_POINT('Origin',(26.1390165100317,-6.620116637333,2.));
#1709=CARTESIAN_POINT('',(26.1390165100317,-6.620116637333,1.));
#1710=CARTESIAN_POINT('Origin',(84.244932791305,-6.620116637333,1.93940268034054E-16));
#1711=CARTESIAN_POINT('',(84.244932791305,-6.620116637333,1.93940268034054E-16));
#1712=CARTESIAN_POINT('',(84.244932791305,-6.620116637333,1.93940268034054E-16));
#1713=CARTESIAN_POINT('',(5.00501651003168,-6.620116637333,1.93940268034054E-16));
#1714=CARTESIAN_POINT('',(5.00501651003168,-6.620116637333,1.93940268034054E-16));
#1715=CARTESIAN_POINT('',(5.00501651003168,-6.620116637333,1.93940268034054E-16));
#1716=CARTESIAN_POINT('Origin',(83.4123190246387,-58.5947419866004,-6.17111558905227E-15));
#1717=CARTESIAN_POINT('',(83.4123190246387,-58.5947419866004,-6.17111558905227E-15));
#1718=CARTESIAN_POINT('Origin',(5.83769367538732,-56.5947419866004,-5.9261862292228E-15));
#1719=CARTESIAN_POINT('',(3.83769367538733,-56.5947419866004,-5.9261862292228E-15));
#1720=CARTESIAN_POINT('Origin',(3.83769367538733,-56.5947419866004,-5.9261862292228E-15));
#1721=CARTESIAN_POINT('Origin',(5.83769367538732,-10.620116637333,-2.95918451624889E-16));
#1722=CARTESIAN_POINT('Origin',(83.4123190246387,-10.620116637333,-2.9591845162489E-16));
#1723=CARTESIAN_POINT('',(85.4123190246388,-10.620116637333,-2.95918451624888E-16));
#1724=CARTESIAN_POINT('Origin',(83.4123190246387,-56.5947419866004,-5.9261862292228E-15));
#1725=CARTESIAN_POINT('Origin',(85.4123190246388,-10.620116637333,-2.95918451624888E-16));
#1726=CARTESIAN_POINT('Origin',(87.4123190246388,-57.4273557025474,-6.02815200143887E-15));
#1727=CARTESIAN_POINT('',(87.4123190246388,-57.4273557025474,-6.02815200143887E-15));
#1728=CARTESIAN_POINT('',(87.412293624588,-9.787426873413,-1.93943366218148E-16));
#1729=CARTESIAN_POINT('',(87.4123190246388,-57.4273557025474,-6.02815200143887E-15));
#1730=CARTESIAN_POINT('',(87.412293624588,-9.787426873413,-1.93943366218148E-16));
#1731=CARTESIAN_POINT('',(87.4123190246388,-57.4273557025474,-6.02815200143887E-15));
#1732=CARTESIAN_POINT('Origin',(84.244970789942,-57.4273683518532,-6.02815355053205E-15));
#1733=CARTESIAN_POINT('',(84.244983439247,-60.59471658655,-6.4160418382727E-15));
#1734=CARTESIAN_POINT('Origin',(84.244970789942,-57.4273683518532,-6.02815355053205E-15));
#1735=CARTESIAN_POINT('',(84.244983439247,-60.59471658655,-6.4160418382727E-15));
#1736=CARTESIAN_POINT('Origin',(5.00502921005841,-60.5947419866004,-6.41604494888174E-15));
#1737=CARTESIAN_POINT('',(5.00502921005841,-60.5947419866004,-6.41604494888174E-15));
#1738=CARTESIAN_POINT('',(5.00502921005841,-60.5947419866004,-6.41604494888174E-15));
#1739=CARTESIAN_POINT('',(5.00502921005841,-60.5947419866004,-6.41604494888174E-15));
#1740=CARTESIAN_POINT('Origin',(5.00502921005847,-57.4274064519294,-6.02815821644569E-15));
#1741=CARTESIAN_POINT('',(1.83769367538732,-57.4274064519294,-6.02815821644569E-15));
#1742=CARTESIAN_POINT('Origin',(5.00502921005847,-57.4274064519294,-6.02815821644569E-15));
#1743=CARTESIAN_POINT('',(1.83769367538732,-57.4274064519294,-6.02815821644569E-15));
#1744=CARTESIAN_POINT('Origin',(1.83769367538732,-9.787452121303,-1.93946458192916E-16));
#1745=CARTESIAN_POINT('',(1.83769367538732,-9.787452121303,-1.93946458192916E-16));
#1746=CARTESIAN_POINT('',(1.83769367538732,-57.4274064519294,-6.02815821644569E-15));
#1747=CARTESIAN_POINT('',(1.83769367538732,-9.787452121303,-1.93946458192916E-16));
#1748=CARTESIAN_POINT('Origin',(5.00501651003306,-9.787439472003,-1.9394490910044E-16));
#1749=CARTESIAN_POINT('Origin',(5.00501651003306,-9.787439472003,-1.9394490910044E-16));
#1750=CARTESIAN_POINT('Origin',(84.244958089916,-9.78745217202301,-1.93946464404325E-16));
#1751=CARTESIAN_POINT('Origin',(84.244958089916,-9.78745217202301,-1.93946464404325E-16));
#1752=CARTESIAN_POINT('Origin',(44.6250063500135,-33.6074293119252,-3.11105234041876E-15));
#1753=CARTESIAN_POINT('',(0.,0.,1.610028244856));
#1754=CARTESIAN_POINT('',(0.,0.,1.620028244856));
#1755=CARTESIAN_POINT('',(0.,0.,0.));
#1756=CARTESIAN_POINT('',(30.924561849124,-1.968503937008,1.600028244856));
#1757=CARTESIAN_POINT('',(14.038481076962,-1.968503937008,1.600028244856));
#1758=CARTESIAN_POINT('',(1.841503683007,-14.67348234696,1.600028244856));
#1759=CARTESIAN_POINT('',(1.841503683007,-32.58051816103,1.600028244856));
#1760=CARTESIAN_POINT('',(13.989458978918,-45.65659131318,1.600028244856));
#1761=CARTESIAN_POINT('',(31.046609093218,-45.78359156718,1.600028244856));
#1762=CARTESIAN_POINT('',(48.196596393193,-45.78359156718,1.600028244856));
#1763=CARTESIAN_POINT('',(65.08763017526,-46.03759207518,1.600028244856));
#1764=CARTESIAN_POINT('',(77.279654559309,-32.87363474726,1.600028244856));
#1765=CARTESIAN_POINT('',(77.40665481331,-14.67348234696,1.600028244856));
#1766=CARTESIAN_POINT('',(48.152527305055,-1.968503937008,1.600028244856));
#1767=UNCERTAINTY_MEASURE_WITH_UNIT(LENGTH_MEASURE(0.01),#1779,
'DISTANCE_ACCURACY_VALUE',
'Maximum model space distance between geometric entities at asserted c
onnectivities');
#1768=UNCERTAINTY_MEASURE_WITH_UNIT(LENGTH_MEASURE(0.01),#1779,
'DISTANCE_ACCURACY_VALUE',
'Maximum model space distance between geometric entities at asserted c
onnectivities');
#1769=UNCERTAINTY_MEASURE_WITH_UNIT(LENGTH_MEASURE(0.01),#1779,
'DISTANCE_ACCURACY_VALUE',
'Maximum model space distance between geometric entities at asserted c
onnectivities');
#1770=UNCERTAINTY_MEASURE_WITH_UNIT(LENGTH_MEASURE(0.01),#1779,
'DISTANCE_ACCURACY_VALUE',
'Maximum model space distance between geometric entities at asserted c
onnectivities');
#1771=UNCERTAINTY_MEASURE_WITH_UNIT(LENGTH_MEASURE(0.01),#1779,
'DISTANCE_ACCURACY_VALUE',
'Maximum model space distance between geometric entities at asserted c
onnectivities');
#1772=UNCERTAINTY_MEASURE_WITH_UNIT(LENGTH_MEASURE(0.01),#1779,
'DISTANCE_ACCURACY_VALUE',
'Maximum model space distance between geometric entities at asserted c
onnectivities');
#1773=(
GEOMETRIC_REPRESENTATION_CONTEXT(3)
GLOBAL_UNCERTAINTY_ASSIGNED_CONTEXT((#1767))
GLOBAL_UNIT_ASSIGNED_CONTEXT((#1779,#1781,#1782))
REPRESENTATION_CONTEXT('','3D')
);
#1774=(
GEOMETRIC_REPRESENTATION_CONTEXT(3)
GLOBAL_UNCERTAINTY_ASSIGNED_CONTEXT((#1768))
GLOBAL_UNIT_ASSIGNED_CONTEXT((#1779,#1781,#1782))
REPRESENTATION_CONTEXT('','3D')
);
#1775=(
GEOMETRIC_REPRESENTATION_CONTEXT(3)
GLOBAL_UNCERTAINTY_ASSIGNED_CONTEXT((#1769))
GLOBAL_UNIT_ASSIGNED_CONTEXT((#1779,#1781,#1782))
REPRESENTATION_CONTEXT('','3D')
);
#1776=(
GEOMETRIC_REPRESENTATION_CONTEXT(3)
GLOBAL_UNCERTAINTY_ASSIGNED_CONTEXT((#1770))
GLOBAL_UNIT_ASSIGNED_CONTEXT((#1779,#1781,#1782))
REPRESENTATION_CONTEXT('','3D')
);
#1777=(
GEOMETRIC_REPRESENTATION_CONTEXT(3)
GLOBAL_UNCERTAINTY_ASSIGNED_CONTEXT((#1771))
GLOBAL_UNIT_ASSIGNED_CONTEXT((#1779,#1781,#1782))
REPRESENTATION_CONTEXT('','3D')
);
#1778=(
GEOMETRIC_REPRESENTATION_CONTEXT(3)
GLOBAL_UNCERTAINTY_ASSIGNED_CONTEXT((#1772))
GLOBAL_UNIT_ASSIGNED_CONTEXT((#1779,#1781,#1782))
REPRESENTATION_CONTEXT('','3D')
);
#1779=(
LENGTH_UNIT()
NAMED_UNIT(*)
SI_UNIT(.MILLI.,.METRE.)
);
#1780=(
LENGTH_UNIT()
NAMED_UNIT(*)
SI_UNIT($,.METRE.)
);
#1781=(
NAMED_UNIT(*)
PLANE_ANGLE_UNIT()
SI_UNIT($,.RADIAN.)
);
#1782=(
NAMED_UNIT(*)
SI_UNIT($,.STERADIAN.)
SOLID_ANGLE_UNIT()
);
#1783=SHAPE_DEFINITION_REPRESENTATION(#1788,#1807);
#1784=SHAPE_DEFINITION_REPRESENTATION(#1789,#1808);
#1785=SHAPE_DEFINITION_REPRESENTATION(#1790,#1809);
#1786=SHAPE_DEFINITION_REPRESENTATION(#1791,#1810);
#1787=SHAPE_DEFINITION_REPRESENTATION(#1792,#1811);
#1788=PRODUCT_DEFINITION_SHAPE('',$,#1813);
#1789=PRODUCT_DEFINITION_SHAPE('',$,#1814);
#1790=PRODUCT_DEFINITION_SHAPE('',$,#1815);
#1791=PRODUCT_DEFINITION_SHAPE('',$,#1816);
#1792=PRODUCT_DEFINITION_SHAPE('',$,#1817);
#1793=PRODUCT_DEFINITION_SHAPE($,$,#55);
#1794=PRODUCT_DEFINITION_SHAPE($,$,#56);
#1795=PRODUCT_DEFINITION_SHAPE($,$,#57);
#1796=PRODUCT_DEFINITION_SHAPE($,$,#58);
#1797=PRODUCT_DEFINITION_SHAPE($,$,#59);
#1798=PRODUCT_DEFINITION_SHAPE($,$,#60);
#1799=PRODUCT_DEFINITION_SHAPE($,$,#61);
#1800=PRODUCT_DEFINITION_SHAPE($,$,#62);
#1801=PRODUCT_DEFINITION_SHAPE($,$,#63);
#1802=PRODUCT_DEFINITION_SHAPE($,$,#64);
#1803=PRODUCT_DEFINITION_SHAPE($,$,#65);
#1804=PRODUCT_DEFINITION_SHAPE($,$,#66);
#1805=PRODUCT_DEFINITION_SHAPE($,$,#67);
#1806=PRODUCT_DEFINITION_SHAPE($,$,#68);
#1807=SHAPE_REPRESENTATION('',(#1051,#1144,#1145,#1146,#1147,#1148,#1149,
#1150,#1151,#1152,#1153,#1154,#1155,#1156,#1157),#1773);
#1808=SHAPE_REPRESENTATION('',(#1052),#1774);
#1809=SHAPE_REPRESENTATION('',(#1053),#1775);
#1810=SHAPE_REPRESENTATION('',(#1054),#1776);
#1811=SHAPE_REPRESENTATION('',(#1055),#1777);
#1812=PRODUCT_DEFINITION_CONTEXT('part definition',#1829,'design');
#1813=PRODUCT_DEFINITION('3bX4-PCBModel',
'Aime_card_reader_ESP32C3MINI_V2 v2',#1818,#1812);
#1814=PRODUCT_DEFINITION('3bX4-TopTrack','3bX4-TopTrack',#1819,#1812);
#1815=PRODUCT_DEFINITION('3bX4-TopSilk','3bX4-TopSilk',#1820,#1812);
#1816=PRODUCT_DEFINITION('3bX4-Board','3bX4-Board',#1821,#1812);
#1817=PRODUCT_DEFINITION('3bX4-LED11-LED-SMD_WS2812B-4020',
'3bX4-LED11-LED-SMD_WS2812B-4020',#1822,#1812);
#1818=PRODUCT_DEFINITION_FORMATION('',$,#1831);
#1819=PRODUCT_DEFINITION_FORMATION('',$,#1832);
#1820=PRODUCT_DEFINITION_FORMATION('',$,#1833);
#1821=PRODUCT_DEFINITION_FORMATION('',$,#1834);
#1822=PRODUCT_DEFINITION_FORMATION('',$,#1835);
#1823=PRODUCT_RELATED_PRODUCT_CATEGORY(
'Aime_card_reader_ESP32C3MINI_V2 v2',
'Aime_card_reader_ESP32C3MINI_V2 v2',(#1831));
#1824=PRODUCT_RELATED_PRODUCT_CATEGORY('3bX4-TopTrack','3bX4-TopTrack',
(#1832));
#1825=PRODUCT_RELATED_PRODUCT_CATEGORY('3bX4-TopSilk','3bX4-TopSilk',(#1833));
#1826=PRODUCT_RELATED_PRODUCT_CATEGORY('3bX4-Board','3bX4-Board',(#1834));
#1827=PRODUCT_RELATED_PRODUCT_CATEGORY(
'3bX4-LED11-LED-SMD_WS2812B-4020','3bX4-LED11-LED-SMD_WS2812B-4020',(#1835));
#1828=APPLICATION_PROTOCOL_DEFINITION('international standard',
'ap242_managed_model_based_3d_engineering',2011,#1829);
#1829=APPLICATION_CONTEXT('Managed model based 3d engineering');
#1830=PRODUCT_CONTEXT('part definition',#1829,'mechanical');
#1831=PRODUCT('3bX4-PCBModel','Aime_card_reader_ESP32C3MINI_V2 v2',
'Designed by EasyEDA Pro',(#1830));
#1832=PRODUCT('3bX4-TopTrack','3bX4-TopTrack',$,(#1830));
#1833=PRODUCT('3bX4-TopSilk','3bX4-TopSilk',$,(#1830));
#1834=PRODUCT('3bX4-Board','3bX4-Board',$,(#1830));
#1835=PRODUCT('3bX4-LED11-LED-SMD_WS2812B-4020',
'3bX4-LED11-LED-SMD_WS2812B-4020',$,(#1830));
#1836=PRESENTATION_STYLE_ASSIGNMENT((#1837));
#1837=SURFACE_STYLE_USAGE(.BOTH.,#1838);
#1838=SURFACE_SIDE_STYLE('',(#1839));
#1839=SURFACE_STYLE_FILL_AREA(#1840);
#1840=FILL_AREA_STYLE('\X2\94A2\X0\ - \X2\7F0E5149\X0\',(#1841));
#1841=FILL_AREA_STYLE_COLOUR('\X2\94A2\X0\ - \X2\7F0E5149\X0\',#1842);
#1842=COLOUR_RGB('\X2\94A2\X0\ - \X2\7F0E5149\X0\',0.627450980392157,0.627450980392157,
0.627450980392157);
ENDSEC;
END-ISO-10303-21;
